<?xml version="1.0" encoding="UTF-8"?>
<svg version="1.1" xmlns="http://www.w3.org/2000/svg" width="282" height="141">
<path d="M0 0 C18.28235745 -0.68139835 30.55689072 3.00937434 44.42895508 15.17089844 C56.22864193 26.70878558 62.74045003 38.951204 63.12573242 55.52807617 C63.20406964 64.70094053 62.46519832 72.47721014 57.89379883 80.58105469 C58.49192383 80.84917969 59.09004883 81.11730469 59.70629883 81.39355469 C63.2046842 83.29267818 64.62725337 84.7814183 65.89379883 88.58105469 C66.53064848 93.99427672 65.58259714 97.23246187 62.55786133 101.60058594 C53.89980853 111.90488821 40.97976937 116.42006871 27.89379883 117.58105469 C21.56239172 117.86048961 15.48961257 117.6792601 9.21020508 116.82714844 C-3.50979434 115.47578256 -13.06766821 117.27380702 -24.90893555 121.75976562 C-28.38318615 123.05836329 -31.89905305 124.22501223 -35.41870117 125.39355469 C-36.59045898 125.791875 -37.7622168 126.19019531 -38.96948242 126.60058594 C-52.23927876 130.74843012 -67.62980659 129.01450651 -81.10620117 126.58105469 C-82.65887695 126.30648437 -82.65887695 126.30648437 -84.24291992 126.02636719 C-94.79851375 123.79106497 -105.09138305 119.47414097 -111.25073242 110.28027344 C-112.10620117 108.58105469 -112.10620117 108.58105469 -112.10620117 106.58105469 C-113.12456055 106.62746094 -114.14291992 106.67386719 -115.19213867 106.72167969 C-135.81931298 107.37236364 -155.2670071 102.25228092 -171.12182617 88.49902344 C-177.92861859 81.92001738 -180.85518264 74.46900323 -181.20385742 64.90136719 C-180.22411117 49.55997473 -169.00871591 35.64517555 -158.10620117 25.58105469 C-144.25817488 13.70954943 -124.62893828 4.58105469 -106.10620117 4.58105469 C-104.39870138 5.86167953 -102.73246521 7.19873026 -101.10620117 8.58105469 C-99.11059972 8.75079747 -99.11059972 8.75079747 -96.91870117 8.70605469 C-91.02908537 9.0815671 -88.07347707 12.86252527 -84.17260742 16.94042969 C-82.19322216 19.46985207 -81.25836138 21.62350059 -80.10620117 24.58105469 C-77.60172601 25.79975397 -77.60172601 25.79975397 -75.10620117 26.58105469 C-73.59697781 29.59950141 -73.7721307 32.73440253 -73.58276367 36.07324219 C-73.033275 38.96481374 -71.89050766 40.29103566 -70.10620117 42.58105469 C-70.10620117 44.58105469 -70.10620117 46.58105469 -70.10620117 48.58105469 C-66.79832563 50.78630505 -66.40903029 50.77901259 -62.71166992 50.26855469 C-61.84493652 50.16115967 -60.97820312 50.05376465 -60.08520508 49.94311523 C-59.16400879 49.82363525 -58.2428125 49.70415527 -57.29370117 49.58105469 C-46.05102133 48.31637342 -35.40448588 48.18671508 -25.10620117 53.58105469 C-26.71888809 50.86880851 -28.35521992 48.20752657 -30.10620117 45.58105469 C-29.8887202 42.17385284 -29.60172511 40.18669505 -27.41870117 37.51855469 C-26.98557617 36.87917969 -26.55245117 36.23980469 -26.10620117 35.58105469 C-26.88750189 33.08552985 -26.88750189 33.08552985 -28.10620117 30.58105469 C-28.54370117 28.01855469 -28.54370117 28.01855469 -28.10620117 25.58105469 C-25.51846334 22.99331686 -23.35223145 21.67271303 -19.91870117 20.39355469 C-16.97315814 18.91303832 -16.97315814 18.91303832 -16.42260742 16.49902344 C-16.12924838 14.89203893 -15.84919813 13.28256571 -15.58276367 11.67089844 C-15.10620117 9.58105469 -15.10620117 9.58105469 -13.35620117 7.64355469 C-11.10620117 6.58105469 -11.10620117 6.58105469 -8.04370117 5.64355469 C-5.01654453 4.86977104 -5.01654453 4.86977104 -3.70654297 2.55664062 C-2.10620117 0.58105469 -2.10620117 0.58105469 0 0 Z " fill="#636465" transform="translate(194.106201171875,5.4189453125)"/>
<path d="M0 0 C-0.33 2.64 -0.66 5.28 -1 8 C-2.19496094 8.45439453 -2.19496094 8.45439453 -3.4140625 8.91796875 C-12.36610908 12.45740322 -17.96834386 15.67841485 -23 24 C-21.14334973 22.23618225 -19.64549318 20.51550734 -18.125 18.4375 C-15.8522956 15.83057437 -14.26390765 14.99730512 -11 14 C-9.63857478 18.08427565 -9.21188997 21.73994576 -10 26 C-11.38772896 28.03911194 -12.93337828 29.6816458 -14.65234375 31.4453125 C-16.22121879 33.00278963 -16.22121879 33.00278963 -16.5625 35.625 C-16.10932205 38.11163669 -16.10932205 38.11163669 -14.5 40.375 C-12.5658086 43.75983495 -12.71023529 46.1606176 -13 50 C-14 52 -14 52 -16 52.875 C-18.20005805 53.8234856 -18.20005805 53.8234856 -18.75 56.125 C-18.8325 56.74375 -18.915 57.3625 -19 58 C-18.34 56.68 -17.68 55.36 -17 54 C-11.025 56.09932432 -11.025 56.09932432 -9 59 C-9.03502385 62.64248044 -9.51715965 66.13727723 -9.96875 69.75 C-10.31210556 72.9262302 -10.31210556 72.9262302 -8.73046875 74.83203125 C-6.80928168 76.17347811 -6.80928168 76.17347811 -3.8125 77.6875 C-1 80 -1 80 -0.75390625 81.9296875 C-0.79386719 82.63351563 -0.83382812 83.33734375 -0.875 84.0625 C-0.91625 85.361875 -0.9575 86.66125 -1 88 C0.9004467 89.84315671 0.9004467 89.84315671 3 91 C3 91.99 3 92.98 3 94 C-17.50528877 94.94801849 -37.17166914 89.72664135 -53.3125 76.6875 C-59.84706225 70.55057845 -62.52414299 64.94155155 -62.8125 55.875 C-62.70140331 42.39971266 -55.0646086 31.94118077 -45.8359375 22.7109375 C-34.33149967 11.71358233 -17.01935752 -1.34363349 0 0 Z " fill="#E4E5E7" transform="translate(79,15)"/>
<path d="M0 0 C0.515625 0.7425 1.03125 1.485 1.5625 2.25 C4.10476365 5.11819488 5.15109277 5.54556346 8.625 6.75 C11.01953125 7.703125 11.01953125 7.703125 13 9 C13.97522523 11.31991904 14.29543187 13.27849354 14.48828125 15.78125 C14.82589609 18.18332299 14.82589609 18.18332299 16.98828125 19.87109375 C19.68609589 22.72606264 19.65470927 24.68978897 19.875 28.5625 C19.95492187 29.69816406 20.03484375 30.83382812 20.1171875 32.00390625 C20 35 20 35 18 38 C17.75812349 40.74518321 17.75812349 40.74518321 17.875 43.6875 C17.89304688 44.68136719 17.91109375 45.67523438 17.9296875 46.69921875 C17.95289063 47.45847656 17.97609375 48.21773437 18 49 C17.01 49.495 17.01 49.495 16 50 C15.90068381 51.41379519 15.87030705 52.83272849 15.875 54.25 C15.671875 56.7265625 15.671875 56.7265625 15 59 C13.09581187 60.60397829 11.28900784 61.55419219 9.0078125 62.5390625 C6.13666934 64.36641717 6.13666934 64.36641717 4 71 C-5.57 71 -15.14 71 -25 71 C-25.99 68.69 -26.98 66.38 -28 64 C-31.22065742 59.56071545 -34.38100307 56.79288186 -39 54 C-38.67 51.03 -38.34 48.06 -38 45 C-39.32 44.34 -40.64 43.68 -42 43 C-42.5 40.3125 -42.5 40.3125 -42 37 C-39.00288486 34.41344858 -35.52060407 32.76030204 -32 31 C-33.11375 31.12375 -33.11375 31.12375 -34.25 31.25 C-37 31 -37 31 -39.375 29.25 C-41 27 -41 27 -40.84765625 25 C-39.73647495 22.37822662 -38.62207961 21.91639071 -36.0625 20.75 C-35.35222656 20.41484375 -34.64195312 20.0796875 -33.91015625 19.734375 C-32 19 -32 19 -30 19 C-29.97421875 18.39671875 -29.9484375 17.7934375 -29.921875 17.171875 C-29.46078683 10.67472358 -29.46078683 10.67472358 -27.25 7.4375 C-24.59984971 5.74434842 -23.08799987 5.6568889 -20 6 C-19.67 6.66 -19.34 7.32 -19 8 C-18.34 5.69 -17.68 3.38 -17 1 C-14.54171921 0.83252588 -12.08338135 0.6659856 -9.625 0.5 C-8.92632812 0.45230469 -8.22765625 0.40460937 -7.5078125 0.35546875 C-2.2265625 0 -2.2265625 0 0 0 Z " fill="#BCBDBF" transform="translate(210,8)"/>
<path d="M0 0 C7.04816455 5.81730005 12.25886214 13.58109409 13.5 22.75 C13.37517582 25.94115718 12.93409305 26.94873971 10.62109375 29.203125 C-5.15765463 39.76822581 -24.63979943 43.9741559 -43.34375 40.6328125 C-52.16994272 38.53751885 -66.68332359 34.04512204 -72.375 26.25 C-72.375 18.30556079 -68.80934354 12.075397 -64.625 5.5 C-48.75670302 -10.36829698 -18.46867993 -12.5408847 0 0 Z " fill="#FCD11F" transform="translate(173.375,64.75)"/>
<path d="M0 0 C50.32448066 -0.56016632 50.32448066 -0.56016632 61 5 C61.33 5.99 61.66 6.98 62 8 C62.763125 8.0825 63.52625 8.165 64.3125 8.25 C67 9 67 9 68.8125 10.6875 C70.38645376 13.75256785 70.42467936 15.58133117 70 19 C66.80467251 22.57090848 62.89395113 25.22390423 59 28 C58.37222656 28.44859375 57.74445313 28.8971875 57.09765625 29.359375 C44.64993465 37.27235206 29.35686642 35.17456859 15.33154297 34.7121582 C1.46771267 34.28556158 -9.25607186 35.49641847 -22 41 C-31.01870275 44.4043714 -39.32558004 46.79328162 -49 47 C-49.78117187 47.05027344 -50.56234375 47.10054687 -51.3671875 47.15234375 C-65.90866869 47.76435895 -83.79855426 43.94512746 -96 36 C-96 35.34 -96 34.68 -96 34 C-94.6696875 34.185625 -94.6696875 34.185625 -93.3125 34.375 C-92.6628125 34.46499268 -92.013125 34.55498535 -91.34375 34.64770508 C-89.67274938 34.89887736 -88.00624416 35.18075761 -86.34375 35.4831543 C-77.84290911 36.96546104 -69.54938432 37.40408805 -60.94458008 37.42553711 C-58.69957265 37.43743601 -56.45732302 37.48681878 -54.21289062 37.53710938 C-44.86070408 37.63803639 -37.06473918 36.26490499 -28.26879883 33.07836914 C-25 32 -25 32 -21 32 C-21 31.34 -21 30.68 -21 30 C-19.7625 29.443125 -19.7625 29.443125 -18.5 28.875 C-12.18598936 25.4924943 -6.92069539 21.20187798 -2 16 C-1.401875 15.54625 -0.80375 15.0925 -0.1875 14.625 C1.80342665 11.90057406 1.22151599 9.26736091 1 6 C0.68041587 3.99775698 0.34931121 1.99727134 0 0 Z " fill="#FCFCFC" transform="translate(187,81)"/>
<path d="M0 0 C9.57 0 19.14 0 29 0 C29 3.3 29 6.6 29 10 C31.03553369 12.58259376 31.03553369 12.58259376 34 14 C34.88816406 14.515625 35.77632812 15.03125 36.69140625 15.5625 C54.97894702 24.71871089 73.9695978 28.63504335 93.88427734 22.34570312 C101.96520322 19.53461144 112.30791339 15.5929924 118 9 C117.52794881 13.24846075 115.11122478 15.26819288 112 18 C111.34 18 110.68 18 110 18 C109.74863281 18.59425781 109.49726563 19.18851563 109.23828125 19.80078125 C106.68912744 24.32814275 101.9161158 27.44113289 97 28.875 C96.34 28.91625 95.68 28.9575 95 29 C95 29.66 95 30.32 95 31 C92.97944982 31.62591479 90.9585454 32.25068609 88.9375 32.875 C87.81214844 33.22304687 86.68679687 33.57109375 85.52734375 33.9296875 C84.36332031 34.28289062 83.19929688 34.63609375 82 35 C80.93265625 35.34587158 79.8653125 35.69174316 78.765625 36.0480957 C74.84825879 37.03835834 71.23200803 37.30616086 67.22265625 37.30078125 C66.49364609 37.30506638 65.76463593 37.3093515 65.01353455 37.31376648 C63.47477244 37.31948015 61.93598334 37.32003203 60.3972168 37.31567383 C58.09959776 37.31255043 55.80331626 37.33588044 53.50585938 37.36132812 C41.95226888 37.40963052 31.20675686 35.90858362 20 33 C27.78013421 42.19713459 45.76663605 43.57147973 57 45 C60.34056503 45.18114707 63.65681361 45.09648446 67 45 C67.88300781 44.99484375 68.76601562 44.9896875 69.67578125 44.984375 C77.65914999 44.67519889 84.65589397 42.40774059 92.1171875 39.765625 C92.88393799 39.49935303 93.65068848 39.23308105 94.44067383 38.95874023 C96.2804081 38.26956381 98.09109978 37.50096556 99.87768555 36.68383789 C111.16894158 31.8805815 121.99895036 32.56396495 134.0625 32.9375 C154.84578186 33.54357584 168.83201194 32.09516908 185 18 C183.6302836 21.99500618 181.74277578 24.80009492 179 28 C181.31 26.35 183.62 24.7 186 23 C183.00748433 30.0493797 175.92142238 33.821612 169.1875 36.8125 C157.24597361 41.40772028 144.91574177 41.95581569 132.31640625 40.24609375 C119.59640683 38.89472788 110.03853296 40.69275233 98.19726562 45.17871094 C94.72301502 46.47730861 91.20714812 47.64395755 87.6875 48.8125 C86.51574219 49.21082031 85.34398437 49.60914063 84.13671875 50.01953125 C67.30560619 55.28056394 42.53352534 53.00564756 26.8125 45.47265625 C24.16811883 44.0391588 21.56956029 42.56298057 19 41 C20.485 40.505 20.485 40.505 22 40 C22 39.34 22 38.68 22 38 C20.515 37.505 20.515 37.505 19 37 C17.90234375 35.44140625 17.90234375 35.44140625 16.9375 33.5625 C15.73980602 31.25850235 14.86847183 29.86847183 13 28 C12.875 25.375 12.875 25.375 13 23 C10.525 22.01 10.525 22.01 8 21 C8.0928125 20.40832031 8.185625 19.81664063 8.28125 19.20703125 C8.5186152 16.60872999 8.58692215 14.55052199 8 12 C6.00796526 10.36181353 4.13526798 9.42995262 1.75 8.4609375 C1.1725 7.97882813 0.595 7.49671875 0 7 C0 4.69 0 2.38 0 0 Z " fill="#E3E4E5" transform="translate(71,82)"/>
<path d="M0 0 C0.60328125 0.50660156 1.2065625 1.01320313 1.828125 1.53515625 C4.41873171 3.28241797 5.73271717 3.24085057 8.8125 3.1875 C13.20429544 3.49284672 15.10576559 4.48170886 18.0625 7.75 C20.49020575 10.74321838 21.62057563 13.1425189 22 17 C21.05988318 18.70116376 20.05104383 20.36504293 19 22 C18.27833809 24.31691454 17.59940471 26.64848923 17 29 C17.66 28.67 18.32 28.34 19 28 C19.33926947 25.66752239 19.67240066 23.33414529 20 21 C20.66 20.34 21.32 19.68 22 19 C25.625 19.375 25.625 19.375 29 20 C29.18175781 21.24716797 29.18175781 21.24716797 29.3671875 22.51953125 C29.61855469 24.14955078 29.61855469 24.14955078 29.875 25.8125 C30.11863281 27.43091797 30.11863281 27.43091797 30.3671875 29.08203125 C30.85132338 32.17321793 30.85132338 32.17321793 33 35 C32.6169847 37.96836854 31.40416706 40.37888816 30 43 C30.99 42.34 31.98 41.68 33 41 C33.99 42.32 34.98 43.64 36 45 C35.35933594 45.27972656 34.71867187 45.55945312 34.05859375 45.84765625 C26.23328751 49.47458656 20.57075725 53.31567656 17.125 61.375 C15.9453125 63.3984375 15.9453125 63.3984375 14 65 C8.33008449 66.1339831 2.76192011 66.08043452 -3 66 C-4.33466341 66.0079124 -5.6693123 66.01940784 -7.00390625 66.03515625 C-10.00437625 66.05821145 -12.99995172 66.04695728 -16 66 C-15.938125 65.06929688 -15.87625 64.13859375 -15.8125 63.1796875 C-15.69404994 60.06364598 -15.69404994 60.06364598 -17.3125 58.3203125 C-17.869375 57.92585938 -18.42625 57.53140625 -19 57.125 C-20.485 56.073125 -20.485 56.073125 -22 55 C-21.4740625 53.9790625 -21.4740625 53.9790625 -20.9375 52.9375 C-19.74079522 49.18782504 -20.11414238 46.81600204 -21 43 C-21.53625 42.113125 -22.0725 41.22625 -22.625 40.3125 C-24 38 -24 38 -24 36.0625 C-23 34 -23 34 -20.4375 31.625 C-16.65791775 27.45442648 -17.63249994 22.14300158 -17.82421875 16.8515625 C-17.91123047 15.44003906 -17.91123047 15.44003906 -18 14 C-12.375 11 -12.375 11 -9 11 C-8.34 7.37 -7.68 3.74 -7 0 C-3.79780242 -1.06739919 -3.05137926 -1.10959246 0 0 Z " fill="#BCBDBF" transform="translate(88,14)"/>
<path d="M0 0 C1.2936456 2.58729119 0.69761163 3.21879335 0 6 C-0.77821384 14.92483218 -1.15505459 22.51405432 4.30859375 30.08203125 C9.34295122 35.79073684 15.64894284 37.82557075 23 39 C28.33228274 39.32152568 33.66480685 39.18074055 39 39 C38.89300781 39.61488281 38.78601563 40.22976562 38.67578125 40.86328125 C38.55589844 41.67152344 38.43601563 42.47976562 38.3125 43.3125 C38.18488281 44.11300781 38.05726562 44.91351563 37.92578125 45.73828125 C37.7835121 48.05255664 37.7835121 48.05255664 39.28125 49.6875 C41.15919564 51.19617839 41.15919564 51.19617839 44.1875 52.6875 C47 55 47 55 47.24609375 56.9296875 C47.20613281 57.63351563 47.16617188 58.33734375 47.125 59.0625 C47.08375 60.361875 47.0425 61.66125 47 63 C48.9004467 64.84315671 48.9004467 64.84315671 51 66 C51 66.99 51 67.98 51 69 C30.49471123 69.94801849 10.82833086 64.72664135 -5.3125 51.6875 C-11.84944829 45.54833761 -14.51887619 39.94291313 -14.8125 30.875 C-14.77220066 18.71534513 -8.3281576 8.53636154 0 0 Z " fill="#BCBCBE" transform="translate(31,40)"/>
<path d="M0 0 C5.31027254 1.46032495 9.46330032 3.98320986 14 7 C12 8 12 8 11 8 C11.71285156 8.556875 12.42570313 9.11375 13.16015625 9.6875 C24.9888045 19.11221031 33.54781536 28.82939041 37 44 C37.29300575 47.27595243 37.33294334 50.52483967 37.3125 53.8125 C37.30839111 55.13773682 37.30839111 55.13773682 37.30419922 56.48974609 C37.07249192 70.92750808 37.07249192 70.92750808 32 76 C30.13671875 75.86328125 30.13671875 75.86328125 27.6875 75.3125 C21.75603374 74.09599285 15.80647266 73.21402531 9.8125 72.375 C8.85496826 72.24005127 7.89743652 72.10510254 6.91088867 71.96606445 C4.60750562 71.64223895 2.3038908 71.32018981 0 71 C0.55867347 64.44132653 0.55867347 64.44132653 2.55859375 62.44140625 C7.77777778 60 7.77777778 60 10 60 C10 57.03 10 54.06 10 51 C13.99110319 49.0044484 15.69986566 48.80453935 20 49 C17.69 48.34 15.38 47.68 13 47 C11.74803922 39.48823529 11.74803922 39.48823529 13.00390625 37.0546875 C14.29273072 34.39617114 13.98190671 32.77193294 13.5625 29.875 C12.90277778 25.19444444 12.90277778 25.19444444 14 23 C16.31 23 18.62 23 21 23 C20.39671875 22.84144531 19.7934375 22.68289062 19.171875 22.51953125 C15.28650191 21.38525298 12.51313321 20.45055599 9.4375 17.75 C7.64251814 14.31612166 7.70030886 11.82106202 8 8 C7.37351563 7.81824219 6.74703125 7.63648438 6.1015625 7.44921875 C5.28429687 7.19785156 4.46703125 6.94648438 3.625 6.6875 C2.81289062 6.44386719 2.00078125 6.20023438 1.1640625 5.94921875 C-1 5 -1 5 -3 2 C-0.36 2.66 2.28 3.32 5 4 C4.175 3.525625 3.35 3.05125 2.5 2.5625 C1.675 2.046875 0.85 1.53125 0 1 C0 0.67 0 0.34 0 0 Z " fill="#E2E3E5" transform="translate(217,8)"/>
<path d="M0 0 C0 0.66 0 1.32 0 2 C-0.66 2 -1.32 2 -2 2 C-2.33 2.99 -2.66 3.98 -3 5 C-3.78375 5.433125 -4.5675 5.86625 -5.375 6.3125 C-8.85408329 8.54905354 -9.66778255 10.07346435 -11 14 C-11.51045248 18.76189227 -11.64917677 23.21476389 -10 27.75 C-4.53324549 33.90009882 -0.20585191 37.56037686 8 39 C8.495 39.495 8.495 39.495 9 40 C10.66617115 40.04063832 12.33388095 40.042721 14 40 C13.67 38.35 13.34 36.7 13 35 C12.34 35 11.68 35 11 35 C9.8125 31.8125 9.8125 31.8125 9 28 C10.375 25.0625 10.375 25.0625 12 23 C11.38125 22.896875 10.7625 22.79375 10.125 22.6875 C8 22 8 22 6 19 C5.47826087 10.7826087 5.47826087 10.7826087 8 7 C9.98 7 11.96 7 14 7 C14.33 6.34 14.66 5.68 15 5 C15.28875 5.9075 15.5775 6.815 15.875 7.75 C16.85309428 10.88302366 16.85309428 10.88302366 18.1875 13.125 C19.20610263 15.47562146 18.84518292 16.63348782 18 19 C19.32 19 20.64 19 22 19 C22.0825 17.741875 22.165 16.48375 22.25 15.1875 C22.62241748 12.22389611 22.75625225 11.26896303 24.8125 9 C27 8 27 8 31 8 C31.495 10.475 31.495 10.475 32 13 C32.99 13.33 33.98 13.66 35 14 C34.5020163 17.73487777 34.12508244 19.81237635 32 23 C31.01 23.33 30.02 23.66 29 24 C29 24.66 29 25.32 29 26 C30.65 26.33 32.3 26.66 34 27 C34 27.66 34 28.32 34 29 C33.01 29 32.02 29 31 29 C30.855625 29.78375 30.71125 30.5675 30.5625 31.375 C30 34 30 34 29 36 C28.01 36.33 27.02 36.66 26 37 C25.38125 37.7734375 25.38125 37.7734375 24.75 38.5625 C22.02123151 40.8039884 19.39786009 40.1923317 16 40 C16 40.66 16 41.32 16 42 C23.26 42 30.52 42 38 42 C26.53894835 47.73052582 10.62540742 46.00194301 -1.30859375 42.41015625 C-18.82422139 35.71900114 -18.82422139 35.71900114 -23 30 C-23 22.05556079 -19.43434354 15.825397 -15.25 9.25 C-11.6104806 5.6104806 -5.39607167 0 0 0 Z " fill="#F9D025" transform="translate(124,61)"/>
<path d="M0 0 C0.556875 0.495 1.11375 0.99 1.6875 1.5 C4.30017159 3.1947059 5.11391934 3.06779188 8.125 3.0625 C14.03436271 3.50349722 17.01007847 7.25779722 20.93359375 11.359375 C22.91297902 13.88879738 23.84783979 16.0424459 25 19 C27.50447516 20.21869929 27.50447516 20.21869929 30 21 C31.50922336 24.01844672 31.33407047 27.15334785 31.5234375 30.4921875 C32.07292618 33.38375906 33.21569351 34.70998098 35 37 C35 39 35 41 35 43 C38.30787555 45.20525036 38.69717088 45.1979579 42.39453125 44.6875 C43.26142578 44.58018555 44.12832031 44.47287109 45.02148438 44.36230469 C46.40303711 44.18296387 46.40303711 44.18296387 47.8125 44 C58.36063404 42.80348445 68.05413016 42.68524765 78 47 C74.36971483 48.15636713 71.03950591 48.05385272 67.25 47.95703125 C65.90496322 47.93460914 64.55990998 47.91315751 63.21484375 47.89257812 C61.11948823 47.85583031 59.02500053 47.81321658 56.93017578 47.75317383 C43.59261922 47.38965318 32.31001937 49.18839104 22.25 58.5625 C19.89908089 60.98154715 19.89908089 60.98154715 18 64 C16.515 63.505 16.515 63.505 15 63 C20.8254374 56.21660179 25.81622345 50.77712764 34 47 C32.515 46.01 32.515 46.01 31 45 C29.68 45.99 28.36 46.98 27 48 C28.20381448 45.50638429 29.45428722 43.31856917 31 41 C30.68973502 38.67301266 29.96315004 36.92413244 28.9375 34.8125 C27.62105513 30.86316538 27.83820596 27.1257481 28 23 C25.66705225 22.95758277 23.33297433 22.95907063 21 23 C19.61455564 24.17204956 19.61455564 24.17204956 19.6875 27.4375 C19.460625 28.613125 19.23375 29.78875 19 31 C16.95703125 32.22265625 16.95703125 32.22265625 15 33 C15.45196245 31.39402675 15.91182327 29.79027492 16.375 28.1875 C16.63023438 27.29417969 16.88546875 26.40085937 17.1484375 25.48046875 C18 23 18 23 20 20 C20 17.15082436 19.49056747 15.55171854 17.58984375 13.4140625 C16.5068852 12.36438636 15.40296575 11.33582122 14.27734375 10.33203125 C13 9 13 9 13 7 C12.00419922 7.06960937 12.00419922 7.06960937 10.98828125 7.140625 C5.00733221 7.38510175 2.61586123 6.9920962 -2 3 C-5.70940775 2.66534111 -5.70940775 2.66534111 -9 3 C-9 3.33 -9 3.66 -9 4 C-9.87140625 4.15855469 -10.7428125 4.31710938 -11.640625 4.48046875 C-31.60868909 8.39196182 -50.93151787 18.53593686 -62.62109375 35.80859375 C-63.07613281 36.53175781 -63.53117187 37.25492188 -64 38 C-64.63035156 38.91910156 -65.26070312 39.83820312 -65.91015625 40.78515625 C-71.37944486 49.55993937 -72.88193131 57.88494457 -71 68 C-67.90613589 77.24575606 -60.22902236 83.1002084 -51.95703125 87.6875 C-37.28558394 94.83558639 -23.06703211 96.86845408 -7 98 C-7 97.01 -7 96.02 -7 95 C-7.66 95 -8.32 95 -9 95 C-8.505 93.515 -8.505 93.515 -8 92 C-4.30557011 94.46295326 -4.36801099 95.89596702 -3 100 C-1.70055256 101.69321939 -0.37073786 103.36395804 1 105 C1.33 105.99 1.66 106.98 2 108 C2.66 108.33 3.32 108.66 4 109 C4 109.66 4 110.32 4 111 C1.70703125 111.2421875 1.70703125 111.2421875 -1 111 C-2.80078125 109.3203125 -2.80078125 109.3203125 -4.3125 107.125 C-4.82425781 106.40570313 -5.33601563 105.68640625 -5.86328125 104.9453125 C-7 103 -7 103 -7 101 C-8.01835938 101.04640625 -9.03671875 101.0928125 -10.0859375 101.140625 C-30.71311181 101.79130895 -50.16080593 96.67122623 -66.015625 82.91796875 C-72.82241742 76.33896269 -75.74898147 68.88794854 -76.09765625 59.3203125 C-75.11791 43.97892005 -63.90251474 30.06412086 -53 20 C-41.85197188 10.44312369 -15.2659119 -6.10636476 0 0 Z " fill="#606060" transform="translate(89,11)"/>
<path d="M0 0 C1.65 0 3.3 0 5 0 C4.37905793 4.17195451 3.62997674 8.09761269 2 12 C-0.72448872 14.01515438 -2.60041775 14.33122972 -6 15 C-5.93039063 15.92941406 -5.86078125 16.85882812 -5.7890625 17.81640625 C-5.34815159 27.88387209 -5.34815159 27.88387209 -7.37109375 31.34765625 C-9.0625 33.125 -9.0625 33.125 -10.78515625 34.5703125 C-11.18605469 35.04210938 -11.58695313 35.51390625 -12 36 C-11.70051797 38.79335054 -10.80141756 40.34370037 -9.375 42.8125 C-7.31534464 47.58715561 -8.40123876 51.20371627 -10 56 C-8.4840625 57.051875 -8.4840625 57.051875 -6.9375 58.125 C-5.21484375 59.3203125 -5.21484375 59.3203125 -4 61 C-4.31640625 64.1796875 -4.31640625 64.1796875 -5 67 C-3.88818359 66.89171875 -3.88818359 66.89171875 -2.75390625 66.78125 C6.51819785 65.96412455 15.69886646 65.89974826 25 66 C25.66 64.68 26.32 63.36 27 62 C27.99 62.495 27.99 62.495 29 63 C28.71125 63.66386719 28.4225 64.32773438 28.125 65.01171875 C27.75375 65.89472656 27.3825 66.77773437 27 67.6875 C26.62875 68.55761719 26.2575 69.42773438 25.875 70.32421875 C24.93226408 73.20713885 24.45826489 75.00594615 25 78 C34.90958733 88.0600175 52.15969767 92.2194354 65.75 92.4375 C81.24852567 92.32039497 95.11144594 87.59236937 108 79 C109.18701159 70.82280905 106.44328568 64.81683572 102 58 C97.07706694 52.13034905 91.17473153 49.36707331 84 47 C87.22791555 44.8480563 88.28400809 44.79913557 92 45 C91.49396008 42.83125748 91.00016187 41.00032373 90 39 C91.65 39.33 93.3 39.66 95 40 C94.67 42.97 94.34 45.94 94 49 C95.32 49.66 96.64 50.32 98 51 C102.20317897 53.90989313 105.64681271 57.43381531 108 62 C108 63.32 108 64.64 108 66 C113.61 66 119.22 66 125 66 C125 66.33 125 66.66 125 67 C120.05 67 115.1 67 110 67 C110.99 70.465 110.99 70.465 112 74 C112.1875 77.0625 112.1875 77.0625 111 80 C97.84157985 91.91247275 78.86928095 95.89227557 61.703125 95.31640625 C47.67168951 94.53904912 32.08678377 89.08678377 22 79 C22.33 75.7 22.66 72.4 23 69 C13.43 69 3.86 69 -6 69 C-6 71.31 -6 73.62 -6 76 C-5.071875 76.268125 -4.14375 76.53625 -3.1875 76.8125 C-0.09521187 77.96452891 1.09671457 78.41696978 3 81 C3.29296875 83.69921875 3.29296875 83.69921875 3.1875 86.6875 C3.16042969 87.68136719 3.13335937 88.67523438 3.10546875 89.69921875 C3.07066406 90.45847656 3.03585938 91.21773438 3 92 C1.515 91.01 1.515 91.01 0 90 C0.103125 88.741875 0.20625 87.48375 0.3125 86.1875 C0.51318017 84.03025694 0.51318017 84.03025694 0 82 C-1.93169914 80.41200408 -3.94721283 79.36980038 -6.1484375 78.19140625 C-8 77 -8 77 -9.0625 74.3125 C-8.97806341 69.8373606 -8.57008394 65.43788423 -8 61 C-10.31 59.35 -12.62 57.7 -15 56 C-15.99 58.475 -15.99 58.475 -17 61 C-19.97 61 -22.94 61 -26 61 C-26 60.67 -26 60.34 -26 60 C-24.741875 59.938125 -23.48375 59.87625 -22.1875 59.8125 C-19.98845765 59.61629844 -19.98845765 59.61629844 -18 59 C-16.15565651 56.53884453 -16.15565651 56.53884453 -15 54 C-14.01 54 -13.02 54 -12 54 C-11.66402703 48.28845952 -11.74953105 44.87570342 -15 40 C-15.5625 37.625 -15.5625 37.625 -15 35 C-14.02686409 33.95352631 -13.02248418 32.93581198 -12 31.9375 C-8.82086508 28.57925889 -8.59270372 26.13780664 -8.625 21.5625 C-8.72064212 19.70658739 -8.83586194 17.85111256 -9 16 C-14.02287922 19.28419026 -16.67031034 21.94805706 -20 27 C-22.25 27.875 -22.25 27.875 -24 28 C-22.83161462 26.59106469 -21.66099675 25.18393313 -20.48046875 23.78515625 C-19.50090953 22.60399909 -18.54443525 21.40327434 -17.61328125 20.18359375 C-13.17982761 14.55978817 -8.50723991 11.75155141 -1.5 10.25 C-0.2625 10.12625 -0.2625 10.12625 1 10 C1.20625 8.72125 1.4125 7.4425 1.625 6.125 C1.74101563 5.40570312 1.85703125 4.68640625 1.9765625 3.9453125 C1.98429687 3.30335937 1.99203125 2.66140625 2 2 C1.34 1.34 0.68 0.68 0 0 Z " fill="#3D3E3F" transform="translate(77,13)"/>
<path d="M0 0 C-6.74095197 8.08914236 -16.90782334 10.01204219 -27 11 C-33.3302537 11.28607172 -39.40547273 11.09803084 -45.68359375 10.24609375 C-58.40359317 8.89472788 -67.96146704 10.69275233 -79.80273438 15.17871094 C-83.27698498 16.47730861 -86.79285188 17.64395755 -90.3125 18.8125 C-91.48425781 19.21082031 -92.65601563 19.60914063 -93.86328125 20.01953125 C-111.53841369 25.54438585 -134.79923628 22.14606043 -151.6875 15.5625 C-154 14 -154 14 -154.64453125 11.90234375 C-154.76183594 11.27457031 -154.87914062 10.64679688 -155 10 C-154.42894531 10.18175781 -153.85789062 10.36351563 -153.26953125 10.55078125 C-143.05455889 13.71758508 -132.72334343 16.52027148 -122 17 C-121.33226562 17.03254883 -120.66453125 17.06509766 -119.9765625 17.09863281 C-104.32713456 17.7687424 -91.54789814 15.04820722 -77.15576172 9.08496094 C-67.12988212 4.94203548 -57.46029661 3.88574333 -46.65234375 5.5 C-32.14166636 7.48648846 -18.85983107 6.0785398 -5.56640625 -0.07421875 C-3 -1 -3 -1 0 0 Z " fill="#BEBEBE" transform="translate(249,112)"/>
<path d="M0 0 C2 2 2 2 2.125 5.125 C2.08375 6.07375 2.0425 7.0225 2 8 C1.34 8.33 0.68 8.66 0 9 C-0.09931619 10.41379519 -0.12969295 11.83272849 -0.125 13.25 C-0.328125 15.7265625 -0.328125 15.7265625 -1 18 C-2.90418813 19.60397829 -4.71099216 20.55419219 -6.9921875 21.5390625 C-9.86333066 23.36641717 -9.86333066 23.36641717 -12 30 C-21.57 30 -31.14 30 -41 30 C-41.99 27.69 -42.98 25.38 -44 23 C-44.96817992 21.31464976 -45.95650161 19.63978318 -47 18 C-46.35973877 18.01047363 -45.71947754 18.02094727 -45.05981445 18.03173828 C-42.14408329 18.07344815 -39.22841505 18.09937363 -36.3125 18.125 C-35.30509766 18.14175781 -34.29769531 18.15851563 -33.25976562 18.17578125 C-32.28330078 18.18222656 -31.30683594 18.18867187 -30.30078125 18.1953125 C-29.40528564 18.20578613 -28.50979004 18.21625977 -27.5871582 18.22705078 C-24.73073313 17.97636895 -22.64083062 17.07851022 -20 16 C-18.68 16 -17.36 16 -16 16 C-16 15.34 -16 14.68 -16 14 C-14.02 13.34 -12.04 12.68 -10 12 C-10 11.34 -10 10.68 -10 10 C-8.57421875 8.6328125 -8.57421875 8.6328125 -6.6875 7.125 C-4.04871976 4.94560255 -1.88866642 2.88854864 0 0 Z " fill="#A7A8AC" transform="translate(226,49)"/>
<path d="M0 0 C0.33 0.66 0.66 1.32 1 2 C-0.98 4.64 -2.96 7.28 -5 10 C-2.69 8.35 -0.38 6.7 2 5 C0.4169423 9.2742558 -2.50568404 11.26531794 -6 14 C-6.99 13.505 -6.99 13.505 -8 13 C-12.59454633 13 -16.36807765 15.07417284 -20.578125 16.80859375 C-26.99049131 19.04120987 -33.29242942 19.15876294 -40 19.125 C-41.15242188 19.13080078 -41.15242188 19.13080078 -42.328125 19.13671875 C-46.98357326 19.12880132 -51.38878074 18.70441657 -56 18 C-68.50925492 17.18178458 -78.63863365 19.98822074 -90.125 24.5625 C-112.7450606 33.51878372 -136.34077533 31.01873919 -159 23 C-159.66 22.67 -160.32 22.34 -161 22 C-160.67 22.99 -160.34 23.98 -160 25 C-162.475 24.01 -162.475 24.01 -165 23 C-164.01 22.67 -163.02 22.34 -162 22 C-162 21.34 -162 20.68 -162 20 C-162.99 19.67 -163.98 19.34 -165 19 C-161.09440636 17.46766182 -158.86260613 18.62819584 -155.125 20.25 C-142.96615903 25.17925985 -130.08893122 27.37774693 -117 27 C-116.11699219 26.99484375 -115.23398438 26.9896875 -114.32421875 26.984375 C-106.34085001 26.67519889 -99.34410603 24.40774059 -91.8828125 21.765625 C-90.73268677 21.36621704 -90.73268677 21.36621704 -89.55932617 20.95874023 C-87.7195919 20.26956381 -85.90890022 19.50096556 -84.12231445 18.68383789 C-72.83105842 13.8805815 -62.00104964 14.56396495 -49.9375 14.9375 C-24.79647276 15.70327517 -24.79647276 15.70327517 -3.33984375 3.50390625 C-2.18931713 2.37260848 -1.08713607 1.19234278 0 0 Z " fill="#C3C3C3" transform="translate(255,100)"/>
<path d="M0 0 C2.57171864 4.51890447 2.3432481 8.53479132 2.3125 13.625 C2.30839111 14.97053955 2.30839111 14.97053955 2.30419922 16.34326172 C2.07373209 30.92626791 2.07373209 30.92626791 -3 36 C-4.93359375 35.86328125 -4.93359375 35.86328125 -7.4375 35.3125 C-13.0017392 34.17436016 -18.57654745 33.24565605 -24.1875 32.375 C-25.04980225 32.24005127 -25.91210449 32.10510254 -26.80053711 31.96606445 C-28.86683422 31.64282276 -30.93338992 31.32123473 -33 31 C-29.99131928 29.40427448 -26.97581383 28.27045179 -23.75 27.1875 C-15.79750666 24.3072361 -8.4177496 20.51540243 -4 13 C-2.39226127 8.7310043 -1.12934561 4.41773431 0 0 Z " fill="#BCBDBF" transform="translate(252,48)"/>
<path d="M0 0 C1.48046875 1.12109375 1.48046875 1.12109375 3 3 C3.30078125 5.78515625 3.30078125 5.78515625 3.3125 9.0625 C3.80345505 17.24508422 6.42086695 22.38856431 12.1640625 28.18359375 C28.01525853 41.84040596 47.94520503 44.58760963 68 46 C68 45.01 68 44.02 68 43 C67.34 43 66.68 43 66 43 C66.33 42.01 66.66 41.02 67 40 C70.69442989 42.46295326 70.63198901 43.89596702 72 48 C73.29944744 49.69321939 74.62926214 51.36395804 76 53 C76.33 53.99 76.66 54.98 77 56 C77.66 56.33 78.32 56.66 79 57 C79 57.66 79 58.32 79 59 C76.70703125 59.2421875 76.70703125 59.2421875 74 59 C72.19921875 57.3203125 72.19921875 57.3203125 70.6875 55.125 C70.17574219 54.40570313 69.66398437 53.68640625 69.13671875 52.9453125 C68 51 68 51 68 49 C66.47246094 49.06960937 66.47246094 49.06960937 64.9140625 49.140625 C44.28688819 49.79130895 24.83919407 44.67122623 8.984375 30.91796875 C2.71489203 24.85829131 0.19896816 18.70076897 -1 10 C-0.95121274 6.59819764 -0.61410229 3.34426788 0 0 Z " fill="#7F8081" transform="translate(14,63)"/>
<path d="M0 0 C33.02853856 -0.99622042 33.02853856 -0.99622042 44 9 C45 11.6875 45 11.6875 45 14 C44 16 44 16 42.25 16.66796875 C36.20871489 18.06291826 29.74363898 18.87181949 24 16 C23.375 13.4375 23.375 13.4375 23 11 C21.02 11.66 19.04 12.32 17 13 C17.66 9.04 18.32 5.08 19 1 C12.73 1 6.46 1 0 1 C0 0.67 0 0.34 0 0 Z " fill="#FAE526" transform="translate(132,58)"/>
<path d="M0 0 C1.65 0.33 3.3 0.66 5 1 C4.67 3.97 4.34 6.94 4 10 C5.32 10.66 6.64 11.32 8 12 C12.20317897 14.90989313 15.64681271 18.43381531 18 23 C18 24.32 18 25.64 18 27 C23.61 27 29.22 27 35 27 C35 27.33 35 27.66 35 28 C30.05 28 25.1 28 20 28 C20.99 31.465 20.99 31.465 22 35 C22.1875 38.0625 22.1875 38.0625 21 41 C7.84157985 52.91247275 -11.13071905 56.89227557 -28.296875 56.31640625 C-42.32831049 55.53904912 -57.91321623 50.08678377 -68 40 C-68.1875 37.0625 -68.1875 37.0625 -68 34 C-67.34 33.34 -66.68 32.68 -66 32 C-65.938125 33.0725 -65.87625 34.145 -65.8125 35.25 C-64.81701071 39.84456597 -63.7929724 40.39105006 -60 43 C-41.77720061 52.88751659 -23.00016208 56.29575268 -2.84765625 50.34765625 C4.52886829 47.91511251 11.54841241 44.3010584 18 40 C19.18701159 31.82280905 16.44328568 25.81683572 12 19 C7.07706694 13.13034905 1.17473153 10.36707331 -6 8 C-2.77208445 5.8480563 -1.71599191 5.79913557 2 6 C1.49396008 3.83125748 1.00016187 2.00032373 0 0 Z " fill="#5E4E2D" transform="translate(167,52)"/>
<path d="M0 0 C0 0.66 0 1.32 0 2 C-0.66 2 -1.32 2 -2 2 C-2.33 2.99 -2.66 3.98 -3 5 C-3.78375 5.433125 -4.5675 5.86625 -5.375 6.3125 C-8.85408329 8.54905354 -9.66778255 10.07346435 -11 14 C-11.52692425 18.91555357 -11.70431502 23.3448597 -9.75 27.9375 C-7.93070028 30.08167467 -6.05829621 32.08365525 -4 34 C-4.66 34.99 -5.32 35.98 -6 37 C-4.68 38.32 -3.36 39.64 -2 41 C-6.40833651 40.38910693 -9.73315818 38.74538278 -13.625 36.625 C-15.31496094 35.71621094 -15.31496094 35.71621094 -17.0390625 34.7890625 C-21.42514799 32.13889475 -21.42514799 32.13889475 -23 30 C-23 22.05556079 -19.43434354 15.825397 -15.25 9.25 C-11.6104806 5.6104806 -5.39607167 0 0 0 Z " fill="#F6AA1C" transform="translate(124,61)"/>
<path d="M0 0 C0 0.99 0 1.98 0 3 C-0.66 3.66 -1.32 4.32 -2 5 C-1.7872678 6.8618034 -1.7872678 6.8618034 -1 9 C-0.649375 10.0725 -0.29875 11.145 0.0625 12.25 C0.5265625 13.61125 0.5265625 13.61125 1 15 C1.66 15 2.32 15 3 15 C3.61875 16.0828125 3.61875 16.0828125 4.25 17.1875 C8.1475154 23.45136403 15.0879442 27.6959814 22 30 C24.06145107 30.068991 26.12501401 30.08467727 28.1875 30.0625 C29.27417969 30.05347656 30.36085937 30.04445313 31.48046875 30.03515625 C32.31191406 30.02355469 33.14335938 30.01195313 34 30 C34 33 34 33 33 35 C22.9811352 35.67192387 13.04584053 36.15723924 3 36 C3.061875 35.06929687 3.12375 34.13859375 3.1875 33.1796875 C3.30595006 30.06364598 3.30595006 30.06364598 1.6875 28.3203125 C1.130625 27.92585938 0.57375 27.53140625 0 27.125 C-0.99 26.42375 -1.98 25.7225 -3 25 C-2.4740625 23.9790625 -2.4740625 23.9790625 -1.9375 22.9375 C-0.74079522 19.18782504 -1.11414238 16.81600204 -2 13 C-2.53625 12.113125 -3.0725 11.22625 -3.625 10.3125 C-5 8 -5 8 -4.9375 5.9375 C-3.72383388 3.42925669 -2.05439184 1.85557973 0 0 Z " fill="#A6A7AA" transform="translate(69,44)"/>
<path d="M0 0 C0.8353125 0.928125 0.8353125 0.928125 1.6875 1.875 C4.07812598 4.07179145 6.00437473 4.86652017 9 6 C10.50922336 9.01844672 10.33407047 12.15334785 10.5234375 15.4921875 C11.07292618 18.38375906 12.21569351 19.70998098 14 22 C14 24 14 26 14 28 C17.30787555 30.20525036 17.69717088 30.1979579 21.39453125 29.6875 C22.26142578 29.58018555 23.12832031 29.47287109 24.02148438 29.36230469 C25.40303711 29.18296387 25.40303711 29.18296387 26.8125 29 C37.36063404 27.80348445 47.05413016 27.68524765 57 32 C53.36971483 33.15636713 50.03950591 33.05385272 46.25 32.95703125 C44.90496322 32.93460914 43.55990998 32.91315751 42.21484375 32.89257812 C40.11948823 32.85583031 38.02500053 32.81321658 35.93017578 32.75317383 C22.59261922 32.38965318 11.31001937 34.18839104 1.25 43.5625 C-1.10091911 45.98154715 -1.10091911 45.98154715 -3 49 C-3.99 48.67 -4.98 48.34 -6 48 C-0.1745626 41.21660179 4.81622345 35.77712764 13 32 C12.01 31.34 11.02 30.68 10 30 C8.68 30.99 7.36 31.98 6 33 C7.20381448 30.50638429 8.45428722 28.31856917 10 26 C9.68973502 23.67301266 8.96315004 21.92413244 7.9375 19.8125 C6.62105513 15.86316538 6.83820596 12.1257481 7 8 C4.66705225 7.95758277 2.33297433 7.95907063 0 8 C-1.38544436 9.17204956 -1.38544436 9.17204956 -1.3125 12.4375 C-1.539375 13.613125 -1.76625 14.78875 -2 16 C-4.04296875 17.22265625 -4.04296875 17.22265625 -6 18 C-5.54803755 16.39402675 -5.08817673 14.79027492 -4.625 13.1875 C-4.36976562 12.29417969 -4.11453125 11.40085937 -3.8515625 10.48046875 C-3 8 -3 8 -1 5 C-0.61500109 3.34450469 -0.27206865 1.6777567 0 0 Z " fill="#423E2C" transform="translate(110,26)"/>
<path d="M0 0 C0.89323975 0.00821777 1.78647949 0.01643555 2.70678711 0.02490234 C3.68067383 0.02876953 4.65456055 0.03263672 5.65795898 0.03662109 C6.6730957 0.06111328 7.68823242 0.08560547 8.73413086 0.11083984 C10.26263672 0.11277344 10.26263672 0.11277344 11.82202148 0.11474609 C19.390821 0.20502998 19.390821 0.20502998 21.67163086 2.48583984 C19.03163086 2.48583984 16.39163086 2.48583984 13.67163086 2.48583984 C13.67163086 2.81583984 13.67163086 3.14583984 13.67163086 3.48583984 C8.72163086 3.81583984 3.77163086 4.14583984 -1.32836914 4.48583984 C-1.65836914 7.12583984 -1.98836914 9.76583984 -2.32836914 12.48583984 C-2.98836914 11.16583984 -3.64836914 9.84583984 -4.32836914 8.48583984 C-8.10560667 8.80525921 -8.10560667 8.80525921 -11.32836914 10.48583984 C-12.18585643 12.94564758 -12.18585643 12.94564758 -12.64086914 15.79833984 C-13.38501176 19.48039618 -13.70286474 21.00703354 -16.72680664 23.32177734 C-19.23002022 24.53481922 -21.69551018 25.59175453 -24.32836914 26.48583984 C-23.75491977 29.35308671 -23.46691764 30.34729135 -21.32836914 32.48583984 C-18.63997529 32.7557589 -16.03694978 32.57321341 -13.32836914 32.48583984 C-14.73854216 35.30618587 -16.41661935 35.46056968 -19.32836914 36.54833984 C-22.58434487 37.60012056 -22.58434487 37.60012056 -25.32836914 39.48583984 C-25.37078637 41.8187876 -25.36929851 44.15286551 -25.32836914 46.48583984 C-25.32836914 47.14583984 -25.32836914 47.80583984 -25.32836914 48.48583984 C-25.01358469 49.82367378 -24.68249258 51.15787694 -24.32836914 52.48583984 C-27.1984536 49.98371493 -29.08376126 48.1621087 -30.39086914 44.54833984 C-30.32836914 41.48583984 -30.32836914 41.48583984 -28.26586914 38.42333984 C-27.62649414 37.45396484 -26.98711914 36.48458984 -26.32836914 35.48583984 C-27.00355368 32.88113654 -27.00355368 32.88113654 -28.32836914 30.48583984 C-28.76586914 27.92333984 -28.76586914 27.92333984 -28.32836914 25.48583984 C-25.74063131 22.89810201 -23.57439942 21.57749818 -20.14086914 20.29833984 C-17.19532611 18.81782348 -17.19532611 18.81782348 -16.64477539 16.40380859 C-16.35141635 14.79682409 -16.0713661 13.18735087 -15.80493164 11.57568359 C-15.32836914 9.48583984 -15.32836914 9.48583984 -13.57836914 7.54833984 C-11.32836914 6.48583984 -11.32836914 6.48583984 -8.26586914 5.54833984 C-5.2339718 4.77883878 -5.2339718 4.77883878 -3.95947266 2.44824219 C-2.32836914 0.48583984 -2.32836914 0.48583984 0 0 Z " fill="#676767" transform="translate(194.328369140625,5.51416015625)"/>
<path d="M0 0 C6.52396607 0.25786427 10.87818251 0.82167521 16 5 C12.86650268 6.04449911 12.01031744 5.93423645 9 5 C12.27731696 5.96431343 15.18351481 7.04295698 18 9 C19.01975758 11.35394041 19.35397961 13.33166492 19.5859375 15.87890625 C20.10430264 18.53430505 20.85055119 19.38791339 23 21 C25.00295639 21.7065786 25.00295639 21.7065786 27.125 22.0625 C28.40375 22.371875 29.6825 22.68125 31 23 C31.33 23.66 31.66 24.32 32 25 C29.36 24.67 26.72 24.34 24 24 C24.09539062 24.81984375 24.19078125 25.6396875 24.2890625 26.484375 C24.39992187 27.56203125 24.51078125 28.6396875 24.625 29.75 C24.79902344 31.35101563 24.79902344 31.35101563 24.9765625 32.984375 C25.00104188 36.13405498 24.47585157 37.3166335 23 40 C22.76079045 42.13287373 22.76079045 42.13287373 22.875 44.25 C22.91625 45.4875 22.9575 46.725 23 48 C24.85625 48.1546875 24.85625 48.1546875 26.75 48.3125 C30.35627117 48.6130226 32.23361741 49.6759894 35 52 C34.24074219 51.91621094 33.48148438 51.83242188 32.69921875 51.74609375 C31.70535156 51.64425781 30.71148437 51.54242188 29.6875 51.4375 C28.70136719 51.33308594 27.71523437 51.22867188 26.69921875 51.12109375 C23.90069653 50.83397473 23.90069653 50.83397473 21 52 C21.00902344 52.60328125 21.01804688 53.2065625 21.02734375 53.828125 C20.78932087 60.24439384 20.78932087 60.24439384 18.4453125 62.48828125 C16.00544278 63.8803231 13.85127936 65 11 65 C10.67 67.31 10.34 69.62 10 72 C9.01 72 8.02 72 7 72 C7.306893 68.62417699 7.63166946 66.49110739 9.6875 63.75 C12.35066876 61.73462905 14.7938815 60.87439595 18 60 C18 57.03 18 54.06 18 51 C19.485 50.505 19.485 50.505 21 50 C20.85691406 48.86111328 20.85691406 48.86111328 20.7109375 47.69921875 C20.60007813 46.70535156 20.48921875 45.71148437 20.375 44.6875 C20.25898438 43.70136719 20.14296875 42.71523438 20.0234375 41.69921875 C20 39 20 39 22 36 C22.25564321 31.0903394 22.43820624 25.35127796 19.8125 21.05859375 C19.35875 20.58550781 18.905 20.11242187 18.4375 19.625 C16 17 16 17 15.6875 13.125 C15.8421875 11.578125 15.8421875 11.578125 16 10 C15.29875 9.9175 14.5975 9.835 13.875 9.75 C10.27162621 8.80998945 7.9314828 7.28004218 5 5 C3.8125 2.8125 3.8125 2.8125 3 1 C2.01 0.67 1.02 0.34 0 0 Z " fill="#515254" transform="translate(207,7)"/>
<path d="M0 0 C0.33 0.66 0.66 1.32 1 2 C2.216875 1.95875 3.43375 1.9175 4.6875 1.875 C13.81415834 1.875 22.8513367 3.89367329 31.7578125 5.73046875 C34.16620585 6.1819273 34.16620585 6.1819273 37 5 C37 6.32 37 7.64 37 9 C37.598125 9.268125 38.19625 9.53625 38.8125 9.8125 C42.31088537 11.71162349 43.73345454 13.20036361 45 17 C45.42 24.7 45.42 24.7 43 28 C37.8265896 33 37.8265896 33 35 33 C36.17727455 30.44923847 37.44130312 28.40294284 39.125 26.125 C41.22255718 22.62907136 41.60812389 20.99624273 41 17 C39.8727078 14.63517472 39.8727078 14.63517472 38 13 C35.93125966 12.3574765 35.93125966 12.3574765 34 12 C33.505 11.01 33.505 11.01 33 10 C15.33862328 1.8234367 -8.94688014 4.40132438 -28 4 C-28 3.67 -28 3.34 -28 3 C-18.64072209 2.27507668 -9.39355936 1.85743333 0 2 C0 1.34 0 0.68 0 0 Z " fill="#565657" transform="translate(215,77)"/>
<path d="M0 0 C2 2 2 2 3.1875 4.625 C3.785625 5.40875 4.38375 6.1925 5 7 C8.62599422 7.41725678 8.62599422 7.41725678 12 7 C12.99 4.69 13.98 2.38 15 0 C15.66 0 16.32 0 17 0 C16.49135273 4.37436651 15.57073772 7.40096719 13 11 C10.04335481 12.4783226 7.25770263 12.06032783 4 12 C4 12.66 4 13.32 4 14 C11.26 14 18.52 14 26 14 C15.10412737 19.44793631 -0.25161228 17.99640686 -11.71484375 14.94921875 C-14.13081399 13.94566188 -15.30906093 12.96350835 -17 11 C-17.66 10.34 -18.32 9.68 -19 9 C-17.68 8.34 -16.36 7.68 -15 7 C-14.01 7.66 -13.02 8.32 -12 9 C-9.98695552 9.62585032 -9.98695552 9.62585032 -7.875 10.0625 C-4 11 -4 11 -3 12 C-1.33382885 12.04063832 0.33388095 12.042721 2 12 C1.67 10.948125 1.34 9.89625 1 8.8125 C0.16033218 5.61126643 -0.19750904 3.2588992 0 0 Z " fill="#F5AB1E" transform="translate(136,89)"/>
<path d="M0 0 C0.90105469 0.02707031 1.80210937 0.05414063 2.73046875 0.08203125 C3.76107422 0.13423828 3.76107422 0.13423828 4.8125 0.1875 C4.67019192 1.60452513 4.52349254 3.0211096 4.375 4.4375 C4.29378906 5.22640625 4.21257812 6.0153125 4.12890625 6.828125 C3.83615007 9.01114639 3.39185581 11.0648182 2.8125 13.1875 C2.1525 13.1875 1.4925 13.1875 0.8125 13.1875 C0.874375 14.46625 0.93625 15.745 1 17.0625 C1.10546875 19.2421875 1.10546875 19.2421875 0.8125 21.1875 C-0.1775 21.8475 -1.1675 22.5075 -2.1875 23.1875 C-2.1875 22.5275 -2.1875 21.8675 -2.1875 21.1875 C-2.8475 21.1875 -3.5075 21.1875 -4.1875 21.1875 C-4.125625 20.445 -4.06375 19.7025 -4 18.9375 C-3.92157805 16.16591128 -3.92157805 16.16591128 -5.625 14.4375 C-7.95066107 11.08854805 -8.53102106 7.2425421 -8.1875 3.1875 C-5.96619565 -0.17045841 -3.84551984 -0.14982545 0 0 Z " fill="#FDE722" transform="translate(146.1875,58.8125)"/>
<path d="M0 0 C3.95818926 -0.08821107 7.91612062 -0.14079412 11.875 -0.1875 C13.53789062 -0.22520508 13.53789062 -0.22520508 15.234375 -0.26367188 C22.35427541 -0.32649453 28.32474802 0.48757489 35 3 C33.625 5 33.625 5 32 7 C31.34 7 30.68 7 30 7 C30 7.66 30 8.32 30 9 C28.35 9 26.7 9 25 9 C25 11.31 25 13.62 25 16 C23 13 23 13 23 11 C21.02 11.66 19.04 12.32 17 13 C17.66 9.04 18.32 5.08 19 1 C12.73 1 6.46 1 0 1 C0 0.67 0 0.34 0 0 Z " fill="#E9D83F" transform="translate(132,58)"/>
<path d="M0 0 C-18.11244947 12.78525845 -41.0783668 10.4921355 -62 7 C-62 6.67 -62 6.34 -62 6 C-60.39729248 6.01571045 -60.39729248 6.01571045 -58.76220703 6.03173828 C-54.75524312 6.06824755 -50.74829358 6.09101174 -46.74121094 6.10986328 C-45.01494871 6.11985099 -43.28870309 6.13344583 -41.5625 6.15087891 C-29.89445965 6.26566866 -19.36593438 6.31966945 -8.5625 1.3125 C-3.32914847 -1.10971616 -3.32914847 -1.10971616 0 0 Z " fill="#4A4A4A" transform="translate(249,112)"/>
<path d="M0 0 C0.556875 0.495 1.11375 0.99 1.6875 1.5 C4.30017159 3.1947059 5.11391934 3.06779188 8.125 3.0625 C14.17976065 3.46547908 17.21432088 7.59940759 21.12890625 11.84765625 C22.05509766 12.91306641 22.05509766 12.91306641 23 14 C22.67 14.66 22.34 15.32 22 16 C18.18063472 14.44396229 15.73955562 12.04395069 13 9 C13 8.34 13 7.68 13 7 C12.33613281 7.04640625 11.67226562 7.0928125 10.98828125 7.140625 C5.00733221 7.38510175 2.61586123 6.9920962 -2 3 C-5.18327203 2.72076561 -7.82461703 2.6840111 -10.91796875 3.515625 C-13.26073165 4.06065802 -15.34793811 4.09782444 -17.75 4.0625 C-18.54921875 4.05347656 -19.3484375 4.04445313 -20.171875 4.03515625 C-20.77515625 4.02355469 -21.3784375 4.01195312 -22 4 C-18.5989125 1.73260834 -15.49364674 1.07762252 -11.5625 0.3125 C-10.89412109 0.17005859 -10.22574219 0.02761719 -9.53710938 -0.11914062 C-3.29319479 -1.36297296 -3.29319479 -1.36297296 0 0 Z " fill="#696969" transform="translate(89,11)"/>
<path d="M0 0 C-1.65 1.32 -3.3 2.64 -5 4 C-4.42655063 6.86724686 -4.1385485 7.8614515 -2 10 C0.68839385 10.26991906 3.29141936 10.08737357 6 10 C4.58982699 12.82034603 2.91174979 12.97472984 0 14.0625 C-3.25597573 15.11428072 -3.25597573 15.11428072 -6 17 C-6.04241723 19.33294775 -6.04092937 21.66702567 -6 24 C-6 24.66 -6 25.32 -6 26 C-5.68521554 27.33783393 -5.35412344 28.67203709 -5 30 C-7.87008446 27.49787509 -9.75539212 25.67626885 -11.0625 22.0625 C-11 19 -11 19 -8.9375 15.9375 C-7.9784375 14.4834375 -7.9784375 14.4834375 -7 13 C-7.67518454 10.39529669 -7.67518454 10.39529669 -9 8 C-9.34253315 5.12272157 -9.41043634 3.66125855 -7.875 1.1875 C-5.22464043 -0.49106106 -3.06753576 -0.20450238 0 0 Z " fill="#686969" transform="translate(175,28)"/>
<path d="M0 0 C-0.33 0.99 -0.66 1.98 -1 3 C-1.90878906 3.01417969 -2.81757813 3.02835937 -3.75390625 3.04296875 C-14.95559943 3.46805865 -24.32580793 6.3874177 -34.7734375 10.4765625 C-46.09143849 14.79622599 -46.09143849 14.79622599 -53 13 C-53 12.67 -53 12.34 -53 12 C-51.52853516 11.67128906 -51.52853516 11.67128906 -50.02734375 11.3359375 C-42.80385002 9.65974775 -35.90980747 7.7442141 -29.0625 4.875 C-19.00321658 0.69686611 -10.92115402 -0.30383427 0 0 Z " fill="#4C4C4C" transform="translate(199,117)"/>
<path d="M0 0 C0.33 0.99 0.66 1.98 1 3 C0.0479279 4.00596297 -0.91187346 5.00461563 -1.875 6 C-2.40867188 6.556875 -2.94234375 7.11375 -3.4921875 7.6875 C-5 9 -5 9 -7 9 C-7.185625 9.556875 -7.37125 10.11375 -7.5625 10.6875 C-9.66360714 14.06754192 -12.70665994 15.85140381 -16 18 C-17.32 17.34 -18.64 16.68 -20 16 C-20 15.34 -20 14.68 -20 14 C-20.66 14 -21.32 14 -22 14 C-22.33 14.99 -22.66 15.98 -23 17 C-25.31 16.67 -27.62 16.34 -30 16 C-26.760853 14.27920315 -23.44935079 13.05105365 -20 11.8125 C-8.49008985 7.83350608 -8.49008985 7.83350608 0 0 Z " fill="#D9DDD9" transform="translate(188,91)"/>
<path d="M0 0 C1.65 0.33 3.3 0.66 5 1 C4.67 3.97 4.34 6.94 4 10 C5.32 10.66 6.64 11.32 8 12 C12.20317897 14.90989313 15.64681271 18.43381531 18 23 C18 24.32 18 25.64 18 27 C23.61 27 29.22 27 35 27 C35 27.33 35 27.66 35 28 C30.05 28 25.1 28 20 28 C19.67 29.32 19.34 30.64 19 32 C18.5875 31.14277344 18.175 30.28554687 17.75 29.40234375 C12.00809572 18.03388594 6.26299699 12.04578384 -6 8 C-2.77208445 5.8480563 -1.71599191 5.79913557 2 6 C1.49396008 3.83125748 1.00016187 2.00032373 0 0 Z " fill="#444234" transform="translate(167,52)"/>
<path d="M0 0 C0.8353125 0.928125 0.8353125 0.928125 1.6875 1.875 C4.07812598 4.07179145 6.00437473 4.86652017 9 6 C10.50922336 9.01844672 10.33407047 12.15334785 10.5234375 15.4921875 C11.07290218 18.38363276 12.19184212 19.72661317 14 22 C14.1875 24.75 14.1875 24.75 14 27 C13.566875 26.401875 13.13375 25.80375 12.6875 25.1875 C11.10242142 23.02165765 11.10242142 23.02165765 9.375 21.4375 C6.78057406 18.72514561 6.88614598 15.85592768 6.9375 12.3125 C6.94652344 11.50425781 6.95554687 10.69601563 6.96484375 9.86328125 C6.97644531 9.24839844 6.98804687 8.63351563 7 8 C4.66705225 7.95758277 2.33297433 7.95907063 0 8 C-1.38544436 9.17204956 -1.38544436 9.17204956 -1.3125 12.4375 C-1.539375 13.613125 -1.76625 14.78875 -2 16 C-4.04296875 17.22265625 -4.04296875 17.22265625 -6 18 C-5.54803755 16.39402675 -5.08817673 14.79027492 -4.625 13.1875 C-4.36976562 12.29417969 -4.11453125 11.40085937 -3.8515625 10.48046875 C-3 8 -3 8 -1 5 C-0.61500109 3.34450469 -0.27206865 1.6777567 0 0 Z " fill="#565657" transform="translate(110,26)"/>
<path d="M0 0 C0.62003906 0.51433594 1.24007812 1.02867188 1.87890625 1.55859375 C6.42095062 3.65623377 10.08581766 2.74892833 14.9375 2.0625 C25.46013289 0.80633794 35.06756537 0.69107615 45 5 C41.65416566 6.03078986 38.7333757 6.0551938 35.24609375 5.9140625 C34.14458984 5.87023438 33.04308594 5.82640625 31.90820312 5.78125 C30.76287109 5.7296875 29.61753906 5.678125 28.4375 5.625 C27.28830078 5.58117188 26.13910156 5.53734375 24.95507812 5.4921875 C16.39315581 5.13105194 16.39315581 5.13105194 13 4 C10.43684481 4.24451151 7.91801841 4.63793162 5.375 5.0390625 C3 5 3 5 1.1875 3.6484375 C0 2 0 2 0 0 Z " fill="#83806A" transform="translate(122,53)"/>
<path d="M0 0 C0.66 0.33 1.32 0.66 2 1 C0.68 4.3 -0.64 7.6 -2 11 C-2.66 9.68 -3.32 8.36 -4 7 C-5.90072266 7.01740234 -5.90072266 7.01740234 -7.83984375 7.03515625 C-9.53906101 7.04454419 -11.23827989 7.05364331 -12.9375 7.0625 C-14.18370117 7.07506836 -14.18370117 7.07506836 -15.45507812 7.08789062 C-21.05226441 7.10966956 -26.44733582 6.71159268 -32 6 C-32 5.67 -32 5.34 -32 5 C-21.97112823 4.0232751 -12.06604235 3.89150374 -2 4 C-1.34 2.68 -0.68 1.36 0 0 Z " fill="#5B5752" transform="translate(104,75)"/>
<path d="M0 0 C1.47265625 1.109375 1.47265625 1.109375 3 3 C3.37109375 5.890625 3.37109375 5.890625 3.4375 9.25 C3.7449046 15.13647101 4.77476657 18.16214985 8 23 C8.34820041 24.66362417 8.68404492 26.32995171 9 28 C10.46771271 30.26454073 10.46771271 30.26454073 12 32 C7.09013335 29.85789835 4.60753534 26.60324675 2 22 C-0.84940785 14.53824131 -1.4374999 7.82831269 0 0 Z " fill="#6E6F6F" transform="translate(14,63)"/>
<path d="M0 0 C0.33 0.66 0.66 1.32 1 2 C1.61875 2.309375 2.2375 2.61875 2.875 2.9375 C5.10325581 4.05162791 6.40433166 5.10039483 8 7 C9.36230612 11.08691837 9.60227567 14.95226274 8.375 19.125 C6.27914201 21.98298817 3.83916673 23.87062495 1 26 C0.34 26 -0.32 26 -1 26 C0.17727455 23.44923847 1.44130312 21.40294284 3.125 19.125 C5.22255718 15.62907136 5.60812389 13.99624273 5 10 C3.53950675 7.29808749 2.73024575 6.25036997 -0.1875 5.25 C-0.785625 5.1675 -1.38375 5.085 -2 5 C-2 4.34 -2 3.68 -2 3 C-1.34 3 -0.68 3 0 3 C0 2.01 0 1.02 0 0 Z " fill="#636363" transform="translate(251,84)"/>
<path d="M0 0 C0.66 0 1.32 0 2 0 C1.34 4.29 0.68 8.58 0 13 C-2.97 13.66 -5.94 14.32 -9 15 C-8.01 17.31 -7.02 19.62 -6 22 C-8.35964273 21.59316505 -9.85934088 21.10185661 -11.8125 19.6875 C-13 18 -13 18 -12.8203125 16.03515625 C-11.74424804 13.36549157 -10.64687124 12.92768816 -8.0625 11.75 C-7.35222656 11.41484375 -6.64195312 11.0796875 -5.91015625 10.734375 C-4 10 -4 10 -2 10 C-1.93941406 9.36191406 -1.87882813 8.72382813 -1.81640625 8.06640625 C-1.73261719 7.24011719 -1.64882812 6.41382813 -1.5625 5.5625 C-1.48128906 4.73878906 -1.40007812 3.91507813 -1.31640625 3.06640625 C-1 1 -1 1 0 0 Z " fill="#E8E8E9" transform="translate(182,17)"/>
<path d="M0 0 C1.32 0 2.64 0 4 0 C6.02892674 4.05785349 6.16885197 6.6168051 5 11 C4.34 11.66 3.68 12.32 3 13 C0.9375 12.75 0.9375 12.75 -1 12 C-2.11445498 9.77109005 -2.16480286 8.46944894 -2.1875 6 C-2.20167969 5.29875 -2.21585938 4.5975 -2.23046875 3.875 C-2 2 -2 2 0 0 Z " fill="#473D15" transform="translate(151,69)"/>
<path d="M0 0 C0.33 0 0.66 0 1 0 C1 1.98 1 3.96 1 6 C3.97 6 6.94 6 10 6 C10 6.33 10 6.66 10 7 C6.7 7 3.4 7 0 7 C0 9.31 0 11.62 0 14 C0.928125 14.268125 1.85625 14.53625 2.8125 14.8125 C5.90478813 15.96452891 7.09671457 16.41696978 9 19 C9.29296875 21.69921875 9.29296875 21.69921875 9.1875 24.6875 C9.16042969 25.68136719 9.13335937 26.67523438 9.10546875 27.69921875 C9.07066406 28.45847656 9.03585938 29.21773437 9 30 C8.01 29.34 7.02 28.68 6 28 C6.1546875 26.1128125 6.1546875 26.1128125 6.3125 24.1875 C6.51318017 22.03025694 6.51318017 22.03025694 6 20 C4.07062538 18.413915 2.05776157 17.37246276 -0.140625 16.1953125 C-2 15 -2 15 -3.1875 12.25 C-2.93344779 7.8464283 -1.60615514 4.08344527 0 0 Z " fill="#555658" transform="translate(71,75)"/>
<path d="M0 0 C0.99 0 1.98 0 3 0 C3 1.32 3 2.64 3 4 C3.66 4 4.32 4 5 4 C5.33 3.01 5.66 2.02 6 1 C7 2 7 2 7.1875 5.375 C7 9 7 9 5 12 C2.5625 11.625 2.5625 11.625 0 11 C-1.49297212 8.01405576 -1.11755228 5.29146376 -1 2 C-0.67 1.34 -0.34 0.68 0 0 Z " fill="#4F4015" transform="translate(132,70)"/>
<path d="M0 0 C0.66 0 1.32 0 2 0 C1.54177532 3.46941546 1.10868317 6.67395049 0 10 C1.98 11.65 3.96 13.3 6 15 C5.625 16.9375 5.625 16.9375 5 19 C4.34 19.33 3.68 19.66 3 20 C2.79375 19.0925 2.5875 18.185 2.375 17.25 C0.6795921 13.24267224 -1.27549784 12.10515339 -5 10 C-5.66 11.65 -6.32 13.3 -7 15 C-9.97 15 -12.94 15 -16 15 C-16 14.67 -16 14.34 -16 14 C-14.741875 13.938125 -13.48375 13.87625 -12.1875 13.8125 C-9.98845765 13.61629844 -9.98845765 13.61629844 -8 13 C-6.15565651 10.53884453 -6.15565651 10.53884453 -5 8 C-4.01 8 -3.02 8 -2 8 C-1.34 5.36 -0.68 2.72 0 0 Z " fill="#515354" transform="translate(67,59)"/>
<path d="M0 0 C0.33 0.66 0.66 1.32 1 2 C-0.98 4.64 -2.96 7.28 -5 10 C-2.69 8.35 -0.38 6.7 2 5 C0.4169423 9.2742558 -2.50568404 11.26531794 -6 14 C-6.66 13.67 -7.32 13.34 -8 13 C-11.41099168 13 -14.63088314 13.49145406 -18 14 C-15.26325139 11.90244665 -12.46433245 9.98579377 -9.5625 8.125 C-5.90841681 5.7130639 -2.94445873 3.22940635 0 0 Z " fill="#BEBEBE" transform="translate(255,100)"/>
<path d="M0 0 C0.33 0.66 0.66 1.32 1 2 C2.98723268 2.70381157 4.98777953 3.3711811 7 4 C8.58867866 5.58867866 8.20794039 7.24689516 8.25 9.4375 C8.28867188 10.64212891 8.28867188 10.64212891 8.328125 11.87109375 C8.21984375 12.57363281 8.1115625 13.27617188 8 14 C7.01 14.66 6.02 15.32 5 16 C5 15.34 5 14.68 5 14 C4.34 14 3.68 14 3 14 C3.0928125 12.88625 3.0928125 12.88625 3.1875 11.75 C3.24729518 8.95181641 3.24729518 8.95181641 1.5 7 C-0.36762594 4.50983207 -0.2532832 3.03939845 0 0 Z " fill="#FCD31B" transform="translate(139,66)"/>
<path d="M0 0 C5.95345745 2.09175532 5.95345745 2.09175532 8 5 C8.1875 7.6875 8.1875 7.6875 8 10 C4.53777385 11.06723961 1.35960734 11.10173486 -2.25 11.0625 C-3.32765625 11.05347656 -4.4053125 11.04445313 -5.515625 11.03515625 C-6.33546875 11.02355469 -7.1553125 11.01195313 -8 11 C-8 10.67 -8 10.34 -8 10 C-2.555 9.505 -2.555 9.505 3 9 C3.1490712 6.9254644 3.1490712 6.9254644 2 5 C1.01 5.33 0.02 5.66 -1 6 C-2.56118428 6.06740865 -4.1250252 6.08514456 -5.6875 6.0625 C-6.89986328 6.04896484 -6.89986328 6.04896484 -8.13671875 6.03515625 C-9.05904297 6.01775391 -9.05904297 6.01775391 -10 6 C-10 5.67 -10 5.34 -10 5 C-8.72125 4.9175 -7.4425 4.835 -6.125 4.75 C-3.94666582 4.54130069 -3.94666582 4.54130069 -2 4 C-0.4100567 2.07935207 -0.4100567 2.07935207 0 0 Z " fill="#DDDEDF" transform="translate(62,69)"/>
<path d="M0 0 C0.70898438 0.0721875 1.41796875 0.144375 2.1484375 0.21875 C14.74881224 1.31708775 27.36290604 1.09264732 40 1 C29.19113535 6.6797715 13.29891141 4.96553505 1.9921875 1.65625 C1.33476563 1.4396875 0.67734375 1.223125 0 1 C0 0.67 0 0.34 0 0 Z " fill="#E2A72F" transform="translate(122,102)"/>
<path d="M0 0 C0 4.6544294 -2.73204535 8.2346842 -4.98046875 12.19921875 C-7.31056488 16.41033794 -8.84868015 20.32200566 -10 25 C-10.33 25 -10.66 25 -11 25 C-11.65712701 16.85162504 -9.86826751 10.68263962 -4.58984375 4.29296875 C-3.44831717 3.1381299 -2.23046714 2.05956893 -1 1 C-0.67 0.67 -0.34 0.34 0 0 Z " fill="#5A5B5C" transform="translate(26,44)"/>
<path d="M0 0 C0.76957031 0.25523438 0.76957031 0.25523438 1.5546875 0.515625 C8.28988623 2.64730406 15.09589356 4.1686456 22.01708984 5.55371094 C24.02528608 5.97419968 26.0152099 6.48012391 28 7 C28.33 7.66 28.66 8.32 29 9 C23.65565977 9.20206762 19.0986039 8.53793156 13.9375 7.1875 C13.25623047 7.02185547 12.57496094 6.85621094 11.87304688 6.68554688 C7.60372288 5.59873529 3.89351078 4.11986781 0 2 C0 1.34 0 0.68 0 0 Z " fill="#4A4A4A" transform="translate(94,122)"/>
<path d="M0 0 C3.62493334 -0.05787784 7.24974857 -0.0935542 10.875 -0.125 C11.90753906 -0.14175781 12.94007813 -0.15851562 14.00390625 -0.17578125 C14.99003906 -0.18222656 15.97617188 -0.18867187 16.9921875 -0.1953125 C18.35899658 -0.21102295 18.35899658 -0.21102295 19.75341797 -0.22705078 C22 0 22 0 24 2 C21.36 2 18.72 2 16 2 C16 2.33 16 2.66 16 3 C10.06 3.33 4.12 3.66 -2 4 C-1.34 2.68 -0.68 1.36 0 0 Z " fill="#737373" transform="translate(192,6)"/>
<path d="M0 0 C0.33 0.66 0.66 1.32 1 2 C0.01 2.495 0.01 2.495 -1 3 C-1.19989763 4.99990516 -1.19989763 4.99990516 -1.1875 7.3125 C-1.5390079 11.55763384 -1.5390079 11.55763384 -3.546875 13.484375 C-5.98952824 14.87729296 -8.14555354 16 -11 16 C-11.33 18.31 -11.66 20.62 -12 23 C-12.99 23 -13.98 23 -15 23 C-14.693107 19.62417699 -14.36833054 17.49110739 -12.3125 14.75 C-9.64933124 12.73462905 -7.2061185 11.87439595 -4 11 C-4 8.03 -4 5.06 -4 2 C-2.68 1.34 -1.36 0.68 0 0 Z " fill="#4B4C4E" transform="translate(229,56)"/>
<path d="M0 0 C4.75 0.75 4.75 0.75 7 3 C8.56004473 3.09696805 10.12445187 3.12978728 11.6875 3.125 C16.11486027 3.47148906 18.08301045 4.44907174 21.0625 7.75 C23.51137934 10.76932417 24.45529679 13.15345385 25 17 C24.34 17.33 23.68 17.66 23 18 C22.5875 16.9275 22.175 15.855 21.75 14.75 C20.26332983 11.39650656 19.13334568 9.08889712 16 7 C13.49555738 6.68532821 11.00392259 6.55551476 8.484375 6.41015625 C4.50822431 5.75371628 2.73270932 3.87653612 0 1 C0 0.67 0 0.34 0 0 Z " fill="#E9E9EA" transform="translate(85,14)"/>
<path d="M0 0 C5.31027254 1.46032495 9.46330032 3.98320986 14 7 C12 8 12 8 11 8 C10.01 8.495 10.01 8.495 9 9 C9 10.98 9 12.96 9 15 C8.67 15 8.34 15 8 15 C8 12.69 8 10.38 8 8 C7.37351563 7.81824219 6.74703125 7.63648438 6.1015625 7.44921875 C5.28429687 7.19785156 4.46703125 6.94648438 3.625 6.6875 C2.81289062 6.44386719 2.00078125 6.20023438 1.1640625 5.94921875 C-1 5 -1 5 -3 2 C-0.36 2.66 2.28 3.32 5 4 C4.175 3.525625 3.35 3.05125 2.5 2.5625 C1.675 2.046875 0.85 1.53125 0 1 C0 0.67 0 0.34 0 0 Z " fill="#C5C5C5" transform="translate(217,8)"/>
<path d="M0 0 C2.25 2.0625 2.25 2.0625 4 4 C-0.58923513 4.12747875 -0.58923513 4.12747875 -2.8125 3.4375 C-5.57166744 2.88566651 -8.00248744 3.33687669 -10.76171875 3.7421875 C-14.50283868 4.17310184 -18.24006464 4.07833199 -22 4 C-18.5989125 1.73260834 -15.49364674 1.07762252 -11.5625 0.3125 C-10.89412109 0.17005859 -10.22574219 0.02761719 -9.53710938 -0.11914062 C-3.22814611 -1.37593113 -3.22814611 -1.37593113 0 0 Z " fill="#828282" transform="translate(89,11)"/>
<path d="M0 0 C7.15297805 -0.22470088 13.72734101 0.08852155 20.72265625 1.66015625 C23.1572072 2.19914439 23.1572072 2.19914439 26 1 C25.67 2.65 25.34 4.3 25 6 C19.66802277 5.16487104 14.46624581 3.96815376 9.21875 2.71875 C6.15611631 2.03486092 3.09961603 1.48548203 0 1 C0 0.67 0 0.34 0 0 Z " fill="#484849" transform="translate(226,81)"/>
<path d="M0 0 C0.33 0.66 0.66 1.32 1 2 C0.34 2 -0.32 2 -1 2 C-1.33 3.98 -1.66 5.96 -2 8 C-2.99 8.33 -3.98 8.66 -5 9 C-6.10636395 11.39068734 -6.10636395 11.39068734 -7 14 C-7.99 15.485 -7.99 15.485 -9 17 C-9.45139459 19.0492094 -9.45139459 19.0492094 -9.625 21.1875 C-9.74875 22.445625 -9.8725 23.70375 -10 25 C-10.66 24.67 -11.32 24.34 -12 24 C-11.51138514 15.20493251 -8.05897384 7.4768341 -2 1 C-1.34 0.67 -0.68 0.34 0 0 Z " fill="#DAA035" transform="translate(113,67)"/>
<path d="M0 0 C-0.33 0.99 -0.66 1.98 -1 3 C-2.01320312 3.06058594 -3.02640625 3.12117188 -4.0703125 3.18359375 C-5.42188514 3.26806704 -6.77344709 3.35271157 -8.125 3.4375 C-9.12273437 3.49647461 -9.12273437 3.49647461 -10.140625 3.55664062 C-13.25924742 3.75537637 -16.23718208 4.04738035 -19.3046875 4.66015625 C-22 5 -22 5 -25 3 C-16.51168642 0.43056454 -8.85406634 -0.38558031 0 0 Z " fill="#5F605F" transform="translate(199,117)"/>
<path d="M0 0 C2 2 2 2 3.1875 4.625 C3.785625 5.40875 4.38375 6.1925 5 7 C8.62599422 7.41725678 8.62599422 7.41725678 12 7 C12.99 4.69 13.98 2.38 15 0 C15.66 0 16.32 0 17 0 C16.69750921 3.32739873 16.28765829 5.5627594 14.4375 8.375 C11.4409517 10.37269887 9.4588299 10.63870753 5.90625 10.453125 C4 10 4 10 1.5 7.8125 C-0.07462392 4.86008015 -0.37534065 3.28423071 0 0 Z " fill="#70560A" transform="translate(136,89)"/>
<path d="M0 0 C0.66 0.33 1.32 0.66 2 1 C1.44570313 1.45890625 0.89140625 1.9178125 0.3203125 2.390625 C-0.40414062 3.00421875 -1.12859375 3.6178125 -1.875 4.25 C-2.59429687 4.85328125 -3.31359375 5.4565625 -4.0546875 6.078125 C-6.00228796 8.0022604 -6.88248093 9.53459608 -8 12 C-12.26273063 17.72103321 -12.26273063 17.72103321 -15.3125 18.875 C-15.869375 18.91625 -16.42625 18.9575 -17 19 C-13.66625383 11.32174419 -6.54240284 5.03261757 0 0 Z " fill="#777778" transform="translate(41,27)"/>
<path d="M0 0 C5.34812435 0.54852557 10.40360054 2.19377717 15 5 C15.33 5.99 15.66 6.98 16 8 C14.37433394 7.52309796 12.74948689 7.04340334 11.125 6.5625 C10.22007813 6.29566406 9.31515625 6.02882813 8.3828125 5.75390625 C6 5 6 5 4 4 C4.33 4.99 4.66 5.98 5 7 C2.525 6.01 2.525 6.01 0 5 C0.99 4.67 1.98 4.34 3 4 C3 3.34 3 2.68 3 2 C2.01 1.67 1.02 1.34 0 1 C0 0.67 0 0.34 0 0 Z " fill="#B6B6B6" transform="translate(90,118)"/>
<path d="M0 0 C0.33 0 0.66 0 1 0 C2.97094808 4.92737019 3.1799928 8.78020872 3 14 C2.01 14.33 1.02 14.66 0 15 C0 12.03 0 9.06 0 6 C-0.33 6.66 -0.66 7.32 -1 8 C-1.66 8 -2.32 8 -3 8 C-3 6.68 -3 5.36 -3 4 C-3.99 4 -4.98 4 -6 4 C-6.33 4.66 -6.66 5.32 -7 6 C-6.67 4.68 -6.34 3.36 -6 2 C-4.02 2 -2.04 2 0 2 C0 1.34 0 0.68 0 0 Z " fill="#D2B642" transform="translate(138,66)"/>
<path d="M0 0 C0.99 0.33 1.98 0.66 3 1 C3.03738281 1.67546875 3.07476562 2.3509375 3.11328125 3.046875 C3.17902344 3.93890625 3.24476562 4.8309375 3.3125 5.75 C3.37050781 6.63171875 3.42851563 7.5134375 3.48828125 8.421875 C4.06826477 11.34392936 5.16872573 12.70116635 7 15 C7.1875 17.75 7.1875 17.75 7 20 C6.566875 19.401875 6.13375 18.80375 5.6875 18.1875 C4.10242142 16.02165765 4.10242142 16.02165765 2.375 14.4375 C-0.33975003 11.59935224 -0.11056417 8.5134409 -0.0625 4.8125 C-0.05347656 3.91144531 -0.04445313 3.01039062 -0.03515625 2.08203125 C-0.02355469 1.39496094 -0.01195313 0.70789062 0 0 Z " fill="#6D6D6E" transform="translate(117,33)"/>
<path d="M0 0 C0.66 0.66 1.32 1.32 2 2 C1.00419922 2.45439453 1.00419922 2.45439453 -0.01171875 2.91796875 C-6.92347032 6.19726694 -11.55897217 9.68906571 -16 16 C-16.99 15.67 -17.98 15.34 -19 15 C-8.46991404 2.7382999 -8.46991404 2.7382999 -1.75 0.125 C-1.1725 0.08375 -0.595 0.0425 0 0 Z " fill="#5A4B31" transform="translate(123,59)"/>
<path d="M0 0 C4.875 4.625 4.875 4.625 6 8 C6.66 8.33 7.32 8.66 8 9 C8 9.66 8 10.32 8 11 C5.75 11.3125 5.75 11.3125 3 11 C0.625 8.875 0.625 8.875 -1 6 C-0.75 2.6875 -0.75 2.6875 0 0 Z " fill="#7D7E7E" transform="translate(85,111)"/>
<path d="M0 0 C-0.33 0.99 -0.66 1.98 -1 3 C-3.39234721 4.05895668 -5.64400074 4.90390195 -8.125 5.6875 C-8.77726563 5.91244141 -9.42953125 6.13738281 -10.1015625 6.36914062 C-14.50890987 7.80764984 -18.31699635 8.22502745 -23 8 C-22.67 7.34 -22.34 6.68 -22 6 C-19.39352093 5.24603543 -16.83084243 4.5920347 -14.1875 4 C-9.62057727 2.96077136 -4.46621465 0 0 0 Z " fill="#614A1F" transform="translate(174,99)"/>
<path d="M0 0 C0 0.66 0 1.32 0 2 C-0.66 2 -1.32 2 -2 2 C-2.33 2.99 -2.66 3.98 -3 5 C-4.1446875 5.5878125 -4.1446875 5.5878125 -5.3125 6.1875 C-9.05575531 8.71202102 -10.26882942 11.92836417 -12 16 C-12.33 16 -12.66 16 -13 16 C-13.125 10.25 -13.125 10.25 -12 8 C-11.34 8 -10.68 8 -10 8 C-9.979375 7.4225 -9.95875 6.845 -9.9375 6.25 C-8.38224447 2.51738673 -4.0847267 0 0 0 Z " fill="#F1AF1A" transform="translate(124,61)"/>
<path d="M0 0 C-0.33 1.98 -0.66 3.96 -1 6 C-1.59167969 5.91621094 -2.18335937 5.83242188 -2.79296875 5.74609375 C-7.09939457 5.19110576 -10.75552644 4.76773348 -15 6 C-15 5.34 -15 4.68 -15 4 C-13.02 3.67 -11.04 3.34 -9 3 C-9 2.34 -9 1.68 -9 1 C-5.8035914 -0.06546953 -3.34252724 -0.07427838 0 0 Z " fill="#F1F1F1" transform="translate(79,15)"/>
<path d="M0 0 C3.35498935 1.38827146 5.15050455 2.85585774 7 6 C7 7.32 7 8.64 7 10 C12.61 10 18.22 10 24 10 C24 10.33 24 10.66 24 11 C19.05 11 14.1 11 9 11 C8.67 12.32 8.34 13.64 8 15 C6.8538027 12.8751956 5.70802708 10.75016569 4.5625 8.625 C4.23701172 8.02171875 3.91152344 7.4184375 3.57617188 6.796875 C1.11328125 2.2265625 1.11328125 2.2265625 0 0 Z " fill="#443F28" transform="translate(178,69)"/>
<path d="M0 0 C0.66 0.99 1.32 1.98 2 3 C1.154375 3.7425 0.30875 4.485 -0.5625 5.25 C-3.234051 7.62963678 -3.234051 7.62963678 -2.9375 9.9375 C-2.628125 10.618125 -2.31875 11.29875 -2 12 C-1.649375 13.0725 -1.29875 14.145 -0.9375 15.25 C-0.628125 16.1575 -0.31875 17.065 0 18 C-0.66 18.66 -1.32 19.32 -2 20 C-7.01832994 10.97148676 -7.01832994 10.97148676 -6 7 C-4.17524906 4.489649 -2.1572538 2.22787818 0 0 Z " fill="#4A4B4D" transform="translate(68,41)"/>
<path d="M0 0 C0.66 0 1.32 0 2 0 C2.66 2.97 3.32 5.94 4 9 C5.32 8.67 6.64 8.34 8 8 C9.3045656 5.00384054 9.3045656 5.00384054 10 2 C10.66 2.33 11.32 2.66 12 3 C11.6875 5.875 11.6875 5.875 11 9 C7.5647952 11.29013653 6.014669 11.17842973 2 11 C2 10.01 2 9.02 2 8 C1.34 8 0.68 8 0 8 C0 5.36 0 2.72 0 0 Z " fill="#E3C338" transform="translate(147,72)"/>
<path d="M0 0 C0.99 0 1.98 0 3 0 C3.18175781 1.24716797 3.18175781 1.24716797 3.3671875 2.51953125 C3.61855469 4.14955078 3.61855469 4.14955078 3.875 5.8125 C4.03742188 6.89144531 4.19984375 7.97039063 4.3671875 9.08203125 C4.85132338 12.17321793 4.85132338 12.17321793 7 15 C6.75 17.125 6.75 17.125 6 19 C5.34 19.33 4.68 19.66 4 20 C1.87063281 13.45980079 0.96086298 6.79759451 0 0 Z " fill="#E4E5E6" transform="translate(114,34)"/>
<path d="M0 0 C1.8125 0.1875 1.8125 0.1875 4 1 C5.88664995 3.51553327 6.89688346 5.47152773 7.5 8.5625 C8.07583911 11.36971565 9.16059363 12.84069687 11 15 C6.1482213 12.94772918 3.71284323 9.39262233 1 5 C0.125 2 0.125 2 0 0 Z " fill="#8E8E8F" transform="translate(15,80)"/>
<path d="M0 0 C0 0.66 0 1.32 0 2 C-0.99 2 -1.98 2 -3 2 C-3.2165625 3.175625 -3.2165625 3.175625 -3.4375 4.375 C-4 7 -4 7 -5 9 C-5.99 8.67 -6.98 8.34 -8 8 C-7.01 5.69 -6.02 3.38 -5 1 C-5.66 1 -6.32 1 -7 1 C-7.33 2.98 -7.66 4.96 -8 7 C-8.33 7 -8.66 7 -9 7 C-8.67 4.69 -8.34 2.38 -8 0 C-2.25 -1.125 -2.25 -1.125 0 0 Z " fill="#EDCA31" transform="translate(158,88)"/>
<path d="M0 0 C1.32 0.33 2.64 0.66 4 1 C4 2.65 4 4.3 4 6 C10.93 6.495 10.93 6.495 18 7 C18 7.33 18 7.66 18 8 C12.39 8 6.78 8 1 8 C0.67 5.36 0.34 2.72 0 0 Z " fill="#919397" transform="translate(184,71)"/>
<path d="M0 0 C2.39036607 3.5855491 3 6.7085077 3 11 C3.31478446 12.33783393 3.64587656 13.67203709 4 15 C1.0511099 12.42917274 -0.77877523 10.7226676 -1.9375 6.9375 C-2.00195201 3.90825552 -1.63727927 2.50407418 0 0 Z " fill="#8A8A8A" transform="translate(166,43)"/>
<path d="M0 0 C-2.75361142 2.75361142 -5.99845364 3.47414027 -9.625 4.625 C-10.68460938 4.96917969 -10.68460938 4.96917969 -11.765625 5.3203125 C-13.50866945 5.88562421 -15.25411416 6.44352544 -17 7 C-17.33 6.34 -17.66 5.68 -18 5 C-16.02 4.67 -14.04 4.34 -12 4 C-12 3.34 -12 2.68 -12 2 C-7.82262526 0.40861915 -4.46839215 -0.21278058 0 0 Z " fill="#BEBEBE" transform="translate(169,122)"/>
<path d="M0 0 C-0.66 0 -1.32 0 -2 0 C-2 0.66 -2 1.32 -2 2 C-7.36000789 4.25684543 -11.1977825 5.36263859 -17 5 C-14.35029405 3.23352937 -11.98501901 2.02985003 -9.0625 0.8125 C-8.20785156 0.44769531 -7.35320312 0.08289063 -6.47265625 -0.29296875 C-3.81725523 -1.05225403 -2.55820275 -0.93187432 0 0 Z " fill="#C8C8C8" transform="translate(182,117)"/>
<path d="M0 0 C2.97 0 5.94 0 9 0 C9.33 1.32 9.66 2.64 10 4 C3.375 4.25 3.375 4.25 0 2 C0 1.34 0 0.68 0 0 Z " fill="#FDFBD1" transform="translate(152,60)"/>
<path d="M0 0 C0.66 0 1.32 0 2 0 C1.34 4.29 0.68 8.58 0 13 C-1.32 12.67 -2.64 12.34 -4 12 C-2.66666667 8 -1.33333333 4 0 0 Z " fill="#F3F4F5" transform="translate(182,17)"/>
<path d="M0 0 C6.03280791 1.6166348 9.950809 3.16709462 14 8 C13.34 8.66 12.68 9.32 12 10 C9.99708788 8.52464063 7.99763223 7.04497707 6 5.5625 C5.42765625 5.14162109 4.8553125 4.72074219 4.265625 4.28710938 C2.82546081 3.21555864 1.41048004 2.11033324 0 1 C0 0.67 0 0.34 0 0 Z " fill="#5D5D5E" transform="translate(225,14)"/>
<path d="M0 0 C0.66 0 1.32 0 2 0 C3.78305524 2.63892176 4.99059621 4.97178863 6 8 C5.01 8 4.02 8 3 8 C3 8.66 3 9.32 3 10 C2.34 10 1.68 10 1 10 C0.63883954 8.5225254 0.28624952 7.04295325 -0.0625 5.5625 C-0.25972656 4.73878906 -0.45695313 3.91507812 -0.66015625 3.06640625 C-0.82837891 2.04353516 -0.82837891 2.04353516 -1 1 C-0.67 0.67 -0.34 0.34 0 0 Z " fill="#FBD31C" transform="translate(138,84)"/>
<path d="M0 0 C3.21043882 1.38188453 5.04936365 2.92421903 7.25 5.625 C8.03117188 6.57246094 8.03117188 6.57246094 8.828125 7.5390625 C9.40820312 8.26222656 9.40820312 8.26222656 10 9 C9.67 9.66 9.34 10.32 9 11 C4.70073737 9.40768051 2.64994267 6.60686641 0 3 C0 2.01 0 1.02 0 0 Z " fill="#757575" transform="translate(238,22)"/>
<path d="M0 0 C-1.98 0.33 -3.96 0.66 -6 1 C-6 1.66 -6 2.32 -6 3 C-7.41303238 3.2506019 -8.83079474 3.47461921 -10.25 3.6875 C-11.03890625 3.81511719 -11.8278125 3.94273437 -12.640625 4.07421875 C-15.62827019 3.98023653 -16.80926883 2.95457437 -19 1 C-18.16855469 0.93941406 -17.33710938 0.87882812 -16.48046875 0.81640625 C-14.85044922 0.69072266 -14.85044922 0.69072266 -13.1875 0.5625 C-12.10855469 0.48128906 -11.02960938 0.40007812 -9.91796875 0.31640625 C-1.8125 -0.5625 -1.8125 -0.5625 0 0 Z " fill="#CCCCCC" transform="translate(157,126)"/>
<path d="M0 0 C6.52396607 0.25786427 10.87818251 0.82167521 16 5 C13 6 13 6 10.0625 4.5625 C9.051875 4.046875 8.04125 3.53125 7 3 C5.68 3 4.36 3 3 3 C3 2.34 3 1.68 3 1 C2.01 0.67 1.02 0.34 0 0 Z " fill="#424242" transform="translate(207,7)"/>
<path d="M0 0 C2.33333333 2.33333333 4.66666667 4.66666667 7 7 C6.67028521 10.29714793 6.3773161 11.6226839 4 14 C4 11.36 4 8.72 4 6 C2.68 5.34 1.36 4.68 0 4 C0 2.68 0 1.36 0 0 Z " fill="#E7E8E9" transform="translate(168,47)"/>
<path d="M0 0 C-2.09754435 1.6756417 -4.20224639 3.34050194 -6.3125 5 C-6.90740234 5.47695313 -7.50230469 5.95390625 -8.11523438 6.4453125 C-12.66015625 10 -12.66015625 10 -16 10 C-15.44570313 9.52949219 -14.89140625 9.05898438 -14.3203125 8.57421875 C-13.59585938 7.95160156 -12.87140625 7.32898437 -12.125 6.6875 C-11.40570313 6.07261719 -10.68640625 5.45773438 -9.9453125 4.82421875 C-7.80820669 2.9587676 -7.80820669 2.9587676 -6 0 C-3.39677846 -0.97620808 -2.52782417 -1.26391209 0 0 Z " fill="#454546" transform="translate(50,25)"/>
<path d="M0 0 C0.33 0.66 0.66 1.32 1 2 C1.61875 2.309375 2.2375 2.61875 2.875 2.9375 C5.05810535 4.02905268 6.37010468 5.20711515 8 7 C7.67 7.66 7.34 8.32 7 9 C6.2575 8.525625 5.515 8.05125 4.75 7.5625 C2.38949985 6.22130673 0.63351523 5.487688 -2 5 C-2 4.34 -2 3.68 -2 3 C-1.34 3 -0.68 3 0 3 C0 2.01 0 1.02 0 0 Z " fill="#7F7F7F" transform="translate(251,84)"/>
<path d="M0 0 C6.27 0.33 12.54 0.66 19 1 C19 1.33 19 1.66 19 2 C12.4 2.33 5.8 2.66 -1 3 C-0.67 2.01 -0.34 1.02 0 0 Z " fill="#5B5B5B" transform="translate(122,129)"/>
<path d="M0 0 C1.9375 0.5 1.9375 0.5 4 2 C4.81891972 4.65146735 5.16456946 7.22974747 5 10 C4.01 11.485 4.01 11.485 3 13 C0.57142857 6.71428571 0.57142857 6.71428571 2 3 C1.34 3 0.68 3 0 3 C0 2.01 0 1.02 0 0 Z " fill="#565857" transform="translate(80,103)"/>
<path d="M0 0 C1.485 0.99 1.485 0.99 3 2 C5.28648848 2.24107326 5.28648848 2.24107326 7.6875 2.125 C8.49574219 2.10695313 9.30398437 2.08890625 10.13671875 2.0703125 C10.75160156 2.04710938 11.36648437 2.02390625 12 2 C12 2.66 12 3.32 12 4 C9.04335481 5.4783226 6.25770263 5.06032783 3 5 C2.67 5.66 2.34 6.32 2 7 C1.34 4.69 0.68 2.38 0 0 Z " fill="#E2BF34" transform="translate(137,96)"/>
<path d="M0 0 C0.99 0 1.98 0 3 0 C3.33 2.31 3.66 4.62 4 7 C3.34 6.01 2.68 5.02 2 4 C2 5.65 2 7.3 2 9 C1.34 9 0.68 9 0 9 C-0.66 6.69 -1.32 4.38 -2 2 C-1.34 1.34 -0.68 0.68 0 0 Z " fill="#EAC530" transform="translate(135,87)"/>
<path d="M0 0 C0.99 0.33 1.98 0.66 3 1 C2.56179109 5.55737263 2.14958831 8.57653445 -1 12 C-2.45606519 7.47907032 -1.27032841 4.48351204 0 0 Z " fill="#747476" transform="translate(253,72)"/>
<path d="M0 0 C0.99 0 1.98 0 3 0 C3 1.32 3 2.64 3 4 C3.66 4 4.32 4 5 4 C4.67 5.32 4.34 6.64 4 8 C2.68 7.67 1.36 7.34 0 7 C0 4.69 0 2.38 0 0 Z " fill="#39372B" transform="translate(132,70)"/>
<path d="M0 0 C2.475 0.99 2.475 0.99 5 2 C2.94766315 4.2477975 1.99332739 5.0022242 -1 6 C-2.56118428 6.06740865 -4.1250252 6.08514456 -5.6875 6.0625 C-6.89986328 6.04896484 -6.89986328 6.04896484 -8.13671875 6.03515625 C-9.05904297 6.01775391 -9.05904297 6.01775391 -10 6 C-10 5.67 -10 5.34 -10 5 C-8.72125 4.9175 -7.4425 4.835 -6.125 4.75 C-3.94666582 4.54130069 -3.94666582 4.54130069 -2 4 C-0.4100567 2.07935207 -0.4100567 2.07935207 0 0 Z " fill="#C8C9CA" transform="translate(62,69)"/>
<path d="M0 0 C5.4389165 -0.21755666 9.87080814 -0.10428384 15 2 C15 2.33 15 2.66 15 3 C9.5814234 3.22577402 5.22512279 2.46670113 0 1 C0 0.67 0 0.34 0 0 Z " fill="#404040" transform="translate(108,128)"/>
<path d="M0 0 C0.66 0 1.32 0 2 0 C2.391875 0.4125 2.78375 0.825 3.1875 1.25 C5.81219817 3.78419134 8.80218765 5.25025362 12 7 C9 8 9 8 6.51953125 7.00390625 C5.62621094 6.52824219 4.73289062 6.05257812 3.8125 5.5625 C2.91144531 5.08941406 2.01039062 4.61632812 1.08203125 4.12890625 C0.39496094 3.75636719 -0.29210937 3.38382812 -1 3 C-0.67 2.01 -0.34 1.02 0 0 Z " fill="#E8A732" transform="translate(110,94)"/>
<path d="M0 0 C0.33 0 0.66 0 1 0 C1 1.98 1 3.96 1 6 C3.97 6 6.94 6 10 6 C10 6.33 10 6.66 10 7 C9.30132812 7.02578125 8.60265625 7.0515625 7.8828125 7.078125 C6.97273438 7.13484375 6.06265625 7.1915625 5.125 7.25 C4.22007813 7.29640625 3.31515625 7.3428125 2.3828125 7.390625 C-0.17110544 7.75611148 -0.17110544 7.75611148 -1.3203125 10.046875 C-1.54460937 10.69140625 -1.76890625 11.3359375 -2 12 C-2.17835515 7.45194365 -1.99785435 4.1205746 0 0 Z " fill="#353638" transform="translate(71,75)"/>
<path d="M0 0 C2.31 0 4.62 0 7 0 C6.38722388 2.96175123 5.74627478 4.38058783 4 7 C2.02 3.535 2.02 3.535 0 0 Z " fill="#A3A6A7" transform="translate(179,67)"/>
<path d="M0 0 C0.66 0 1.32 0 2 0 C0.75304528 3.74086417 -1.19266568 5.25795253 -4 8 C-5.35555293 9.64864545 -6.69631653 11.31003995 -8 13 C-8.99 12.67 -9.98 12.34 -11 12 C-10.29875 11.319375 -9.5975 10.63875 -8.875 9.9375 C-6.15381461 7.23957261 -3.73904225 4.33406548 -1.33203125 1.35546875 C-0.89246094 0.90816406 -0.45289063 0.46085937 0 0 Z " fill="#636466" transform="translate(64,28)"/>
<path d="M0 0 C5.73348951 0.83904725 11.12801076 1.75200717 16 5 C12.04 4.67 8.08 4.34 4 4 C4 3.34 4 2.68 4 2 C2.68 1.34 1.36 0.68 0 0 Z " fill="#F9B91B" transform="translate(126,99)"/>
<path d="M0 0 C0.33 0.66 0.66 1.32 1 2 C0.01 2.495 0.01 2.495 -1 3 C-1.46651207 5.12576782 -1.46651207 5.12576782 -1.625 7.5625 C-1.69976562 8.38878906 -1.77453125 9.21507813 -1.8515625 10.06640625 C-1.90054688 10.70449219 -1.94953125 11.34257813 -2 12 C-2.66 12 -3.32 12 -4 12 C-4 8.7 -4 5.4 -4 2 C-2.68 1.34 -1.36 0.68 0 0 Z " fill="#393A3C" transform="translate(229,56)"/>
<path d="M0 0 C0 4.24645065 -1.81750806 6.38524772 -4 10 C-4.66 10 -5.32 10 -6 10 C-5.58578031 5.16743695 -3.53586014 3.17320782 0 0 Z " fill="#535354" transform="translate(26,44)"/>
<path d="M0 0 C4.75 0.75 4.75 0.75 7 3 C9.43252661 3.46162427 9.43252661 3.46162427 12.125 3.625 C13.03507812 3.69976563 13.94515625 3.77453125 14.8828125 3.8515625 C15.58148438 3.90054687 16.28015625 3.94953125 17 4 C17 4.33 17 4.66 17 5 C7.45949735 6.71457432 7.45949735 6.71457432 3.93359375 4.98828125 C2.3125 3.625 2.3125 3.625 0 1 C0 0.67 0 0.34 0 0 Z " fill="#D3D3D5" transform="translate(85,14)"/>
<path d="M0 0 C5.31027254 1.46032495 9.46330032 3.98320986 14 7 C10.79937313 8.60031344 8.27728194 7.03173691 5 6 C5 5.34 5 4.68 5 4 C3.35178756 2.96986723 1.68496298 1.96885372 0 1 C0 0.67 0 0.34 0 0 Z " fill="#979797" transform="translate(217,8)"/>
<path d="M0 0 C2.19050021 0.09017996 4.378466 0.24666208 6.5625 0.4375 C7.76003906 0.53933594 8.95757812 0.64117187 10.19140625 0.74609375 C11.11824219 0.82988281 12.04507813 0.91367188 13 1 C10.1004339 2.65876079 8.08364791 3.2361216 4.75 3.125 C2.89375 3.063125 2.89375 3.063125 1 3 C0.34 4.32 -0.32 5.64 -1 7 C-1.04254356 5.00045254 -1.04080783 2.99958364 -1 1 C-0.67 0.67 -0.34 0.34 0 0 Z " fill="#E5E6E6" transform="translate(193,9)"/>
<path d="M0 0 C5.61 0.33 11.22 0.66 17 1 C17 1.33 17 1.66 17 2 C14.9190156 2.24959784 12.83499188 2.47394907 10.75 2.6875 C9.58984375 2.81511719 8.4296875 2.94273438 7.234375 3.07421875 C4 3 4 3 0 0 Z " fill="#6D6D6D" transform="translate(217,79)"/>
<path d="M0 0 C1.32 0.33 2.64 0.66 4 1 C4.33 2.65 4.66 4.3 5 6 C3.68 6.33 2.36 6.66 1 7 C0.67 4.69 0.34 2.38 0 0 Z " fill="#EDEDED" transform="translate(226,17)"/>
<path d="M0 0 C-1.26239712 0.86658615 -2.53527501 1.71792059 -3.8125 2.5625 C-4.87404297 3.27599609 -4.87404297 3.27599609 -5.95703125 4.00390625 C-8 5 -8 5 -11 4 C-9.73760288 3.13341385 -8.46472499 2.28207941 -7.1875 1.4375 C-6.47980469 0.96183594 -5.77210938 0.48617187 -5.04296875 -0.00390625 C-3 -1 -3 -1 0 0 Z " fill="#444444" transform="translate(249,112)"/>
<path d="M0 0 C0.99 0.33 1.98 0.66 3 1 C3 4.63 3 8.26 3 12 C2.01 11.34 1.02 10.68 0 10 C-0.29296875 7.6171875 -0.29296875 7.6171875 -0.1875 4.875 C-0.16042969 3.96492188 -0.13335937 3.05484375 -0.10546875 2.1171875 C-0.07066406 1.41851562 -0.03585938 0.71984375 0 0 Z " fill="#3C3D3F" transform="translate(77,93)"/>
<path d="M0 0 C0.33 0.66 0.66 1.32 1 2 C1.5775 2.268125 2.155 2.53625 2.75 2.8125 C5.72207612 4.38109573 7.70251569 6.57487767 10 9 C6.84669446 8.39305845 4.81111133 7.3583335 2.25 5.4375 C1.63640625 4.98246094 1.0228125 4.52742188 0.390625 4.05859375 C-0.06828125 3.70925781 -0.5271875 3.35992187 -1 3 C-0.67 2.01 -0.34 1.02 0 0 Z " fill="#504A2F" transform="translate(170,60)"/>
<path d="M0 0 C2.97 0.495 2.97 0.495 6 1 C4.82421875 2.984375 4.82421875 2.984375 3 5 C0.51953125 5.390625 0.51953125 5.390625 -2.1875 5.25 C-3.53908203 5.19585937 -3.53908203 5.19585937 -4.91796875 5.140625 C-5.60503906 5.09421875 -6.29210937 5.0478125 -7 5 C-6.67 4.34 -6.34 3.68 -6 3 C-3.69 3.33 -1.38 3.66 1 4 C0.67 2.68 0.34 1.36 0 0 Z " fill="#EDE35B" transform="translate(161,60)"/>
<path d="M0 0 C0.99 0.33 1.98 0.66 3 1 C2.21625 1.763125 1.4325 2.52625 0.625 3.3125 C-2.07257717 5.90891805 -2.07257717 5.90891805 -4 9 C-4.99 8.67 -5.98 8.34 -7 8 C-4.69 5.36 -2.38 2.72 0 0 Z " fill="#5A4520" transform="translate(111,66)"/>
<path d="M0 0 C0 0.66 0 1.32 0 2 C-0.66 2 -1.32 2 -2 2 C-2.33 2.99 -2.66 3.98 -3 5 C-5.31 5.33 -7.62 5.66 -10 6 C-4.4 0 -4.4 0 0 0 Z " fill="#D5A631" transform="translate(124,61)"/>
<path d="M0 0 C2.64465038 3.1254959 3.84414715 6.08788267 5 10 C4.34 10.66 3.68 11.32 3 12 C-0.42857143 4.71428571 -0.42857143 4.71428571 0 0 Z " fill="#414243" transform="translate(63,49)"/>
<path d="M0 0 C0.66 0 1.32 0 2 0 C1.25 6.75 1.25 6.75 -1 9 C-2.25541557 5.23375329 -1.37061958 3.62811066 0 0 Z " fill="#4D4E50" transform="translate(67,59)"/>
<path d="M0 0 C0.66 0.33 1.32 0.66 2 1 C1 3 1 3 -1.8125 4.1875 C-4.97904018 4.9946573 -6.01517795 4.91292822 -9 4 C-7.54618103 3.30300448 -6.08677047 2.61766134 -4.625 1.9375 C-3.40683594 1.36322266 -3.40683594 1.36322266 -2.1640625 0.77734375 C-1.44992188 0.52082031 -0.73578125 0.26429687 0 0 Z " fill="#5A5B5D" transform="translate(75,23)"/>
<path d="M0 0 C-0.639375 0.103125 -1.27875 0.20625 -1.9375 0.3125 C-2.618125 0.539375 -3.29875 0.76625 -4 1 C-4.33 1.99 -4.66 2.98 -5 4 C-7.31 3.67 -9.62 3.34 -12 3 C-3.33333333 -1.66666667 -3.33333333 -1.66666667 0 0 Z " fill="#C1C1C0" transform="translate(170,104)"/>
<path d="M0 0 C1.32 0 2.64 0 4 0 C4 2.64 4 5.28 4 8 C3.67 7.01 3.34 6.02 3 5 C2.01 5 1.02 5 0 5 C0 3.35 0 1.7 0 0 Z " fill="#626161" transform="translate(151,71)"/>
<path d="M0 0 C-3 2 -3 2 -5 3 C-5.33 3.99 -5.66 4.98 -6 6 C-6.99 5.67 -7.98 5.34 -9 5 C-6.81610567 0.16423399 -5.20641855 -0.13701101 0 0 Z " fill="#C8C9CB" transform="translate(177,42)"/>
<path d="M0 0 C-0.33 1.32 -0.66 2.64 -1 4 C-3.31 4.33 -5.62 4.66 -8 5 C-3.16129032 0 -3.16129032 0 0 0 Z " fill="#7E7E7F" transform="translate(54,20)"/>
<path d="M0 0 C-1.28519565 2.86697492 -2.57129254 4.97607712 -5 7 C-5.66 7 -6.32 7 -7 7 C-3.86206897 0 -3.86206897 0 0 0 Z " fill="#3F3F3F" transform="translate(257,103)"/>
<path d="M0 0 C0.66 1.32 1.32 2.64 2 4 C0.02 4.99 -1.96 5.98 -4 7 C-3.67 5.68 -3.34 4.36 -3 3 C-2.34 3.33 -1.68 3.66 -1 4 C-0.67 2.68 -0.34 1.36 0 0 Z " fill="#F4CF31" transform="translate(181,90)"/>
<path d="M0 0 C2.86697492 1.28519565 4.97607712 2.57129254 7 5 C7 5.66 7 6.32 7 7 C4.13302508 5.71480435 2.02392288 4.42870746 0 2 C0 1.34 0 0.68 0 0 Z " fill="#3F3F3F" transform="translate(21,88)"/>
<path d="M0 0 C5.75 2.5 5.75 2.5 8 7 C5.36 5.68 2.72 4.36 0 3 C0 2.01 0 1.02 0 0 Z " fill="#BBBCBE" transform="translate(71,86)"/>
<path d="M0 0 C-0.33 0.99 -0.66 1.98 -1 3 C-4.0625 4.1875 -4.0625 4.1875 -7 5 C-7.66 4.34 -8.32 3.68 -9 3 C-2.25 0 -2.25 0 0 0 Z " fill="#655522" transform="translate(174,99)"/>
<path d="M0 0 C2.5 1.1875 2.5 1.1875 5 3 C5.3125 5.6875 5.3125 5.6875 5 8 C2.20127563 5.47211993 0.54226981 3.79588866 0 0 Z " fill="#575757" transform="translate(245,31)"/>
<path d="M0 0 C0.99 0.33 1.98 0.66 3 1 C-1.75 5.875 -1.75 5.875 -4 7 C-2.79618552 4.50638429 -1.54571278 2.31856917 0 0 Z " fill="#EAE9F0" transform="translate(178,100)"/>
<path d="M0 0 C0.66 0.33 1.32 0.66 2 1 C1.67 1.99 1.34 2.98 1 4 C-0.9375 4.8125 -0.9375 4.8125 -3 5 C-3.66 4.34 -4.32 3.68 -5 3 C-2.625 1.4375 -2.625 1.4375 0 0 Z " fill="#DBDBDD" transform="translate(56,21)"/>
<path d="M0 0 C0 0.66 0 1.32 0 2 C-1.98 2.66 -3.96 3.32 -6 4 C-6.66 3.34 -7.32 2.68 -8 2 C-4.77208445 -0.1519437 -3.71599191 -0.20086443 0 0 Z " fill="#D6D6D6" transform="translate(190,14)"/>
</svg>
